<svg width="24" height="24" viewBox="0 0 24 24" fill="none" xmlns="http://www.w3.org/2000/svg">
<path d="M21.525 21.5344C21.385 21.6722 21.1965 21.7497 21 21.75C20.8008 21.7492 20.6096 21.672 20.4656 21.5344L16.4156 17.475C14.7099 18.9077 12.517 19.6266 10.2941 19.4817C8.07128 19.3368 5.99018 18.3394 4.48486 16.6975C2.97953 15.0555 2.16622 12.8958 2.21454 10.6688C2.26286 8.44172 3.16908 6.31931 4.7442 4.74419C6.31932 3.16907 8.44173 2.26285 10.6688 2.21453C12.8958 2.16621 15.0555 2.97953 16.6975 4.48485C18.3394 5.99017 19.3368 8.07128 19.4817 10.2941C19.6266 12.517 18.9077 14.7099 17.475 16.4156L21.525 20.4656C21.5959 20.5354 21.6521 20.6186 21.6906 20.7103C21.729 20.8021 21.7487 20.9005 21.7487 21C21.7487 21.0994 21.729 21.1979 21.6906 21.2897C21.6521 21.3814 21.5959 21.4646 21.525 21.5344ZM10.875 18C12.2842 18 13.6617 17.5821 14.8334 16.7992C16.0051 16.0163 16.9184 14.9035 17.4576 13.6016C17.9969 12.2997 18.138 10.8671 17.8631 9.48497C17.5882 8.10286 16.9096 6.83331 15.9131 5.83686C14.9167 4.84041 13.6471 4.16182 12.265 3.8869C10.8829 3.61198 9.4503 3.75308 8.14838 4.29235C6.84646 4.83163 5.73368 5.74485 4.95078 6.91655C4.16787 8.08825 3.75 9.4658 3.75 10.875C3.75248 12.7639 4.50394 14.5747 5.8396 15.9104C7.17526 17.246 8.98609 17.9975 10.875 18Z" fill="white" fill-opacity="0.4"/>
</svg>
