<svg width="130" height="24" viewBox="0 0 130 24" fill="none" xmlns="http://www.w3.org/2000/svg">
<g id="Group">
<path id="Vector" d="M109.149 1.86746C108.803 1.65441 108.434 1.46316 108.043 1.29611C107.057 0.882123 105.939 0.67392 104.69 0.67392C104.651 0.67392 104.613 0.676341 104.574 0.676341C104.536 0.676341 104.498 0.67392 104.459 0.67392C103.21 0.67392 102.091 0.882123 101.106 1.29611C100.696 1.468 100.315 1.66894 99.9541 1.89167C99.4498 2.2064 98.9942 2.57196 98.5897 2.99079C97.8986 3.70498 97.3687 4.54505 96.995 5.5086C96.6213 6.47215 96.437 7.4938 96.437 8.57113C96.437 9.64847 96.629 10.7016 97.0129 11.6651C97.3969 12.6287 97.9344 13.4688 98.623 14.1829C99.0223 14.5969 99.4677 14.9577 99.9541 15.2675C100.31 15.4927 100.686 15.6936 101.088 15.8631C102.043 16.2674 103.087 16.4683 104.229 16.4683C104.344 16.4683 104.459 16.4659 104.574 16.4587C104.69 16.4635 104.805 16.4683 104.92 16.4683C106.059 16.4683 107.106 16.2674 108.061 15.8631C108.463 15.6936 108.839 15.4927 109.195 15.2675V16.6257C109.195 18.0153 108.757 19.0878 107.879 19.8432C107.047 20.5622 105.941 20.935 104.574 20.9714C104.503 20.9714 104.434 20.9786 104.359 20.9786C103.438 20.9786 102.583 20.7801 101.794 20.3879C101.006 19.9933 100.392 19.4655 99.9541 18.8022L97.3815 20.3734L97.2587 20.4484C97.96 21.5064 98.9353 22.361 100.184 23.0147C101.434 23.6683 102.836 23.9951 104.393 23.9951C104.454 23.9951 104.513 23.9951 104.574 23.9927C105.752 23.9758 106.827 23.8087 107.797 23.4819C108.816 23.1405 109.694 22.6467 110.428 22.0051C110.966 21.533 111.411 20.9907 111.767 20.3734C111.898 20.1482 112.015 19.9158 112.12 19.6713C112.515 18.7586 112.712 17.7224 112.712 16.5628V0.676341H109.149V1.86988V1.86746ZM108.823 10.4377C108.606 11.0139 108.301 11.515 107.912 11.946C107.521 12.3769 107.039 12.7207 106.463 12.9773C105.903 13.2291 105.271 13.355 104.574 13.3598C103.878 13.355 103.248 13.2291 102.685 12.9773C102.109 12.7207 101.628 12.3769 101.236 11.946C100.845 11.515 100.54 11.0115 100.325 10.4377C100.108 9.86393 100 9.24658 100 8.5905C100 7.93442 100.108 7.31223 100.325 6.72635C100.543 6.14048 100.847 5.63207 101.236 5.20114C101.618 4.77989 102.081 4.4458 102.629 4.18917C102.644 4.18191 102.66 4.17223 102.675 4.16738C102.762 4.12865 102.852 4.09717 102.941 4.0657C103.003 4.04391 103.062 4.01728 103.123 3.99792C103.241 3.9616 103.361 3.93255 103.484 3.9035C103.515 3.89623 103.543 3.88655 103.573 3.88171C103.888 3.81876 104.221 3.78729 104.572 3.78729C104.922 3.78729 105.255 3.81876 105.57 3.88171C105.601 3.88897 105.629 3.89866 105.66 3.9035C105.783 3.93013 105.903 3.95918 106.021 3.99792C106.082 4.01728 106.141 4.04391 106.202 4.0657C106.292 4.0996 106.381 4.12865 106.469 4.16738C106.484 4.17465 106.499 4.18191 106.515 4.18917C107.062 4.44337 107.526 4.77989 107.907 5.20114C108.299 5.63207 108.603 6.14048 108.818 6.72635C109.036 7.31223 109.143 7.932 109.143 8.5905C109.143 9.249 109.036 9.86393 108.818 10.4377H108.823Z" fill="#1D1D1B"/>
<path id="Vector_2" d="M30.3734 2.98353C29.649 2.26934 28.7889 1.70283 27.7932 1.28885C26.7949 0.87486 25.6942 0.666656 24.4886 0.666656C23.283 0.666656 22.1439 0.87486 21.1354 1.28885C20.1269 1.70283 19.2668 2.26934 18.5552 2.98353C17.8436 3.69771 17.2933 4.53779 16.9119 5.50134C16.5279 6.46489 16.3359 7.48654 16.3359 8.56387C16.3359 9.6412 16.533 10.6943 16.9272 11.6579C17.3214 12.6214 17.8794 13.4615 18.6038 14.1757C19.3282 14.8899 20.1883 15.4564 21.184 15.8704C22.1823 16.2844 23.283 16.4926 24.4886 16.4926C25.6942 16.4926 26.7949 16.2844 27.7932 15.8704C28.7915 15.4564 29.6515 14.8899 30.3734 14.1757C31.0978 13.4615 31.6558 12.6214 32.05 11.6579C32.4442 10.6943 32.6413 9.66299 32.6413 8.56387C32.6413 7.46475 32.4442 6.46489 32.05 5.50134C31.6558 4.53779 31.0978 3.69771 30.3734 2.98353ZM28.7966 10.4304C28.5765 11.0115 28.2642 11.5199 27.8598 11.9532C27.4528 12.389 26.9664 12.7304 26.3956 12.9797C25.8248 13.2291 25.19 13.3526 24.4886 13.3526C23.7873 13.3526 23.1524 13.2291 22.5816 12.9797C22.0108 12.7304 21.5245 12.389 21.1175 11.9532C20.7105 11.5175 20.3982 11.0091 20.1806 10.4304C19.9605 9.84941 19.853 9.22722 19.853 8.56387C19.853 7.90052 19.963 7.27833 20.1806 6.6973C20.3982 6.11627 20.7105 5.60786 21.1175 5.17451C21.5219 4.73873 22.0108 4.39738 22.5816 4.14802C23.1524 3.89866 23.7873 3.77519 24.4886 3.77519C25.19 3.77519 25.8248 3.89866 26.3956 4.14802C26.9664 4.39738 27.4528 4.73873 27.8598 5.17451C28.2642 5.61028 28.5765 6.11869 28.7966 6.6973C29.0142 7.27833 29.1242 7.90052 29.1242 8.56387C29.1242 9.22722 29.0142 9.84941 28.7966 10.4304Z" fill="#1D1D1B"/>
<path id="Vector_3" d="M44.5491 0.676331L40.1106 11.5465L35.7027 0.676331H31.9553L38.8281 16.4829H41.3597L48.23 0.676331H44.5491Z" fill="#1D1D1B"/>
<path id="Vector_4" d="M129.457 5.38754C129.096 4.46515 128.574 3.65655 127.896 2.96173C127.215 2.26691 126.393 1.71251 125.431 1.29852C124.466 0.884534 123.381 0.676331 122.175 0.676331C120.969 0.676331 119.84 0.884534 118.855 1.29852C117.87 1.71251 117.03 2.27901 116.339 2.9932C115.648 3.70739 115.123 4.54747 114.759 5.51101C114.399 6.47456 114.217 7.49621 114.217 8.57354C114.217 9.71382 114.414 10.7718 114.808 11.745C115.202 12.7207 115.773 13.5583 116.518 14.2628C117.263 14.9673 118.151 15.5169 119.18 15.9115C120.209 16.3061 121.371 16.5022 122.666 16.5022C124.069 16.5022 125.375 16.2432 126.58 15.7251C127.786 15.207 128.805 14.4081 129.639 13.3308L126.91 11.7765C126.34 12.481 125.689 12.9749 124.955 13.2533C124.22 13.5341 123.47 13.6721 122.702 13.6721C121.276 13.6721 120.132 13.2993 119.267 12.5536C118.402 11.808 117.913 10.8323 117.803 9.63151H129.936C129.956 9.50804 129.974 9.32646 129.985 9.08679C129.995 8.84953 130 8.58323 130 8.29271C130 7.2759 129.818 6.30751 129.457 5.38512V5.38754ZM117.9 7.20569C118.01 6.24457 118.448 5.43354 119.216 4.77504C119.984 4.11653 120.98 3.78486 122.208 3.78486C122.8 3.78486 123.347 3.87444 123.852 4.05359C124.356 4.23274 124.788 4.47726 125.149 4.78956C125.51 5.09945 125.802 5.46259 126.02 5.879C126.237 6.29299 126.37 6.73602 126.414 7.20811H117.898L117.9 7.20569Z" fill="#1D1D1B"/>
<path id="Vector_5" d="M61.2206 3.0392C60.4962 2.25238 59.631 1.66167 58.6225 1.26705C57.614 0.872429 56.6157 0.676331 55.6302 0.676331C54.4681 0.676331 53.393 0.877271 52.4075 1.28157C51.422 1.68588 50.5671 2.24512 49.8427 2.96173C49.1183 3.67592 48.5552 4.51115 48.1507 5.46501C47.7437 6.41888 47.5415 7.45505 47.5415 8.57596C47.5415 9.69687 47.7437 10.7427 48.1507 11.716C48.5552 12.6916 49.1157 13.5293 49.8273 14.2338C50.5389 14.9383 51.3734 15.4927 52.3256 15.897C53.2804 16.3013 54.3043 16.5022 55.3998 16.5022C56.4083 16.5022 57.4169 16.2843 58.4254 15.8486C59.4339 15.4128 60.6063 14.8899 61.2206 14.1006V16.5022H65.8485V14.1394H64.0491V3.0392H65.8485V0.676331H61.2206V3.0392ZM60.189 10.382C59.9612 10.9897 59.6336 11.515 59.2087 11.9581C58.7837 12.4011 58.282 12.7449 57.7061 12.9942C57.1276 13.2412 56.4928 13.3646 55.794 13.3646C55.0952 13.3646 54.4655 13.2412 53.8998 12.9942C53.3341 12.7473 52.8375 12.4059 52.4126 11.975C51.9877 11.5417 51.6601 11.0333 51.4323 10.445C51.2044 9.85908 51.0893 9.22478 51.0893 8.54449C51.0893 7.8642 51.2096 7.23717 51.4476 6.65855C51.6882 6.08236 52.0133 5.57638 52.428 5.14545C52.8427 4.71209 53.3367 4.37316 53.9152 4.12622C54.4911 3.87928 55.1182 3.75581 55.794 3.75581C56.4698 3.75581 57.1276 3.87928 57.7061 4.12622C58.282 4.37316 58.7837 4.70967 59.2087 5.13092C59.6336 5.55217 59.9612 6.04121 60.189 6.59803C60.4168 7.15485 60.532 7.75283 60.532 8.38955C60.532 9.111 60.4168 9.77435 60.189 10.382Z" fill="#1D1D1B"/>
<path id="Vector_6" d="M13.6329 3.5113C13.4025 3.18204 13.1465 2.877 12.8573 2.60343C12.5655 2.32744 12.2455 2.08776 11.9025 1.87472C11.5237 1.63988 11.1141 1.44136 10.6687 1.28158C9.62438 0.908749 8.49555 0.666652 7.38208 0.676336C6.2814 0.688441 5.19609 0.913591 4.1594 1.28158C3.71657 1.43894 3.30702 1.63988 2.92562 1.87472C2.58262 2.08776 2.26266 2.32986 1.97085 2.60343C1.77887 2.785 1.60225 2.98594 1.43587 3.19415C1.07239 3.64687 0.765227 4.15769 0.524615 4.73389C0.173934 5.57396 -0.00268555 6.52299 -0.00268555 7.57853V16.5047H3.48364V7.85936C3.48364 6.80866 3.71913 5.78701 4.57408 5.06798C5.3855 4.38769 6.4401 3.93012 7.52542 3.95918C8.46995 3.98581 9.37353 4.38042 10.103 4.94693C10.5382 5.28587 10.8761 5.6587 11.0629 6.16468C11.2626 6.70698 11.3419 7.28559 11.3419 7.85694V16.5022H14.8283V7.57853C14.8283 6.52056 14.6517 5.57154 14.301 4.73389C14.1141 4.28843 13.8889 3.88413 13.6303 3.5113H13.6329Z" fill="#1D1D1B"/>
<path id="Vector_7" d="M94.791 1.2041C94.0359 0.954742 93.2731 0.831273 92.5051 0.831273C91.4736 0.831273 90.5444 1.04916 89.7099 1.48494C88.8755 1.92071 88.2304 2.50174 87.7697 3.22561V3.21835L87.7671 3.0392V0.676331H83.1392V3.0392H84.9079V14.1418H83.1392V16.5047H88.3942V7.1137C88.5709 6.18162 89.0239 5.41417 89.7586 4.81135C90.4932 4.21095 91.343 3.91075 92.308 3.91075C92.8353 3.91075 93.3217 3.98822 93.7722 4.14316C94.2201 4.29811 94.6758 4.53294 95.1365 4.84282L96.8797 2.29354C96.2449 1.81661 95.5486 1.45346 94.791 1.2041Z" fill="#1D1D1B"/>
<path id="Vector_8" d="M77.7869 8.2564C78.1607 8.45976 78.1607 8.97059 77.7869 9.17395L75.0762 10.6556L72.3655 12.1372C71.9917 12.3406 71.5259 12.0864 71.5259 11.6797V8.71881V5.75796C71.5259 5.35124 71.9917 5.09703 72.3655 5.30039L75.0762 6.78203L77.7869 8.26366V8.2564Z" fill="#FA2A2A"/>
</g>
</svg>
