<svg width="60" height="60" viewBox="0 0 60 60" fill="none" xmlns="http://www.w3.org/2000/svg">
<g id="QR" clip-path="url(#clip0_34269_440)">
<path id="Vector" d="M7.25818 40.012C7.25818 40.012 7.27757 40.012 7.28727 40.012V39.9854H7.25818V40.012Z" fill="#CFCDBE"/>
<path id="Vector_2" d="M7.28485 38.1699C7.28485 38.1699 7.26788 38.1699 7.25818 38.1699C7.25818 38.1796 7.25818 38.1869 7.25818 38.1966L7.28485 38.1699Z" fill="#CFCDBE"/>
<path id="Vector_3" d="M47.2727 0V12.6618H60V0H47.2727ZM58.1115 10.8461H49.1272V1.86424H58.1115V10.8461Z" fill="#CFCDBE"/>
<path id="Vector_4" d="M12.7273 0H0V12.7273H12.7273V0ZM10.8703 10.8655H1.88606V1.87879H10.8703V10.8655Z" fill="#CFCDBE"/>
<path id="Vector_5" d="M0 59.9997H12.6618V47.2725H0V59.9997ZM1.86667 49.1319H10.8412V58.1476H1.86667V49.1319Z" fill="#CFCDBE"/>
<path id="Vector_6" d="M38.1697 7.25586V7.28495H38.1963V7.25586H38.1697Z" fill="#CFCDBE"/>
<path id="Vector_7" d="M23.6024 5.44242H25.44V3.60727H30.9091V0H29.0909V1.76242H25.4545V0H20C20.0048 0.601212 20.0097 1.20242 20.0145 1.80606H23.6024V5.44242Z" fill="#CFCDBE"/>
<path id="Vector_8" d="M58.1915 34.5283H58.1649C58.1649 34.5283 58.1649 34.5477 58.1649 34.555L58.1915 34.5283Z" fill="#CFCDBE"/>
<path id="Vector_9" d="M58.1649 32.7178C58.1649 32.7178 58.1649 32.7372 58.1649 32.7444H58.1915L58.1649 32.7178Z" fill="#CFCDBE"/>
<path id="Vector_10" d="M54.5891 36.3976C55.1806 36.3709 55.7358 36.3467 56.3855 36.3176V34.5285H58.1624C58.1624 33.9345 58.1624 33.3406 58.1624 32.7442H56.3345V30.9309H52.7758C52.7539 30.3224 52.7321 29.7164 52.7079 29.1079H50.8606V27.2412H49.0667V23.5927H47.3139V21.7939H49.0133V19.9709H45.4303V18.1964H43.6485V20.0121H41.8303V21.7842H43.6218V23.6218H39.9855V27.2582C39.3867 27.2582 38.7903 27.2582 38.1915 27.2582V25.44H36.3733V23.6461H38.1576V21.8424H39.9539V19.983H41.8036C41.8036 19.3867 41.8036 18.7879 41.8036 18.1915H40.0218V16.3709H34.5867V14.5794H36.3491V12.7394H34.5115V10.9212H32.7394V14.4994H30.9406V16.3491C30.2667 16.3491 29.6848 16.3491 29.103 16.3491V12.737C29.663 12.737 30.2255 12.737 30.8776 12.737V10.8921H32.7151V9.05939H29.103V7.28242H34.5891V9.03515H36.383V7.25333H38.1673V5.5103H40.0121V7.25333H41.857V9.03758H43.6461V7.23152H45.4061V3.6897H43.6073V5.37939H41.8594V1.80364H43.6339V0H39.9976V3.57576H38.1794V0H34.543V1.79879H36.3152V3.61697H34.5842V5.4303H29.0764V7.26303C28.4776 7.27273 27.8812 7.28 27.2824 7.2897C27.2727 8.49212 27.2655 9.69455 27.2558 10.8994H25.4618C25.4618 9.69455 25.4618 8.49212 25.4618 7.28727C26.0606 7.28 26.657 7.2703 27.2558 7.26303V5.47152H25.4642C25.4545 6.0703 25.4473 6.66667 25.4376 7.26546C24.2352 7.26546 23.0303 7.26546 21.8279 7.26546V3.65333H20.0097V5.44242H18.2133V7.21212H16.3491V3.65818H14.5915V14.56H16.4V16.3903H18.1285V20.0412H14.5964V21.8424H16.3782V25.4473H21.7818V23.6533H23.5879V21.8642H21.8327V20.0194H23.6727V16.383H29.0788V18.1527H27.2727V19.9733H29.0545V21.84H30.897V23.6824H25.4424V29.0885C24.8436 29.0885 24.2473 29.0885 23.6485 29.0885V27.2703H16.3758C16.3685 26.6739 16.3588 26.0752 16.3515 25.4788C15.7697 25.4788 15.1855 25.4788 14.5139 25.4788V23.6606H12.7418V25.4788H10.9236C10.9164 26.0776 10.9067 26.6739 10.8994 27.2727H9.06182V29.0909H7.28727V27.3164H5.46909V25.4788H7.28727V23.6606H9.06182V25.4545H10.897V23.6364H12.7127V21.7891H10.9576V19.9903H12.6545V18.1624H10.9673V16.3345H12.6764V14.6206H3.62424V16.3661H1.8303V14.56H0V16.3782C0.601212 16.383 1.20485 16.3855 1.80606 16.3903V18.1964H0V20.0145H3.64848V16.3903H5.48606V18.2109H7.25818C7.25818 20.0194 7.25818 21.8303 7.25818 23.6388C6.66182 23.6388 6.06303 23.6388 5.46667 23.6388C5.46667 23.0545 5.46667 22.4703 5.46667 21.8327H0V23.6509C1.81333 23.6558 3.62909 23.6582 5.44242 23.663V25.457C3.62909 25.4618 1.81576 25.4667 0 25.4691V27.2873H3.57818V30.8752H1.86424V29.1055H0V32.7418H5.38909V34.5891H1.87394V45.4036H7.25818V40.0267C6.66182 40.017 6.06545 40.0097 5.47151 40C5.47636 39.3939 5.48121 38.7903 5.48606 38.1842C6.07758 38.1842 6.66909 38.1842 7.26061 38.1842C7.2703 35.7673 7.27758 33.3527 7.28727 30.9358H9.13939V34.5018H12.6594V32.7176H10.9648V30.8849H12.6788V29.0885H10.9236V27.3018C12.7345 27.3018 14.543 27.3018 16.3539 27.3018V29.1467H14.5988V30.8679H21.8448V29.1176H23.6267V30.9358H25.4448V32.7539H27.263C27.263 33.3139 27.263 33.8764 27.263 34.5309H29.0812V38.1842H25.4206V39.9733H23.6267V38.1697H21.8036V34.577C21.2073 34.5673 20.6109 34.5576 20.0145 34.5479V32.8049H14.577V38.1818H12.7418V36.4412H9.08121V38.1818C8.48485 38.1915 7.88606 38.1988 7.2897 38.2085C7.2897 38.8049 7.2897 39.4036 7.2897 40C7.88606 40 8.48485 40 9.08121 40C9.08848 39.4036 9.09818 38.8049 9.10545 38.2085H12.7176V40.0267H9.1103V45.5055H14.5818V47.3042H16.3006V49.137H14.6085V56.3952H16.3515V58.2424H14.6012V59.9515H18.2279V58.16H20.0242V56.3321H21.7624V54.5358H20.0703V52.7055H21.84V50.9115H23.6242C23.6315 50.3152 23.6412 49.7188 23.6485 49.1224H25.4424V50.9164L23.6485 50.943C23.6485 52.1309 23.6485 53.3188 23.6485 54.5988H25.3842V56.4218H23.6994V58.2424H25.4885V59.9564H27.3067V54.5527H30.8945V52.7782H25.4642V50.943H27.3091V49.1539H29.103V50.8606H30.9188V45.4885H32.737V43.6703C33.3358 43.6703 33.9321 43.6703 34.5309 43.6703V47.2824H32.7564V54.5794H30.9236C30.9236 55.1758 30.9236 55.7746 30.9236 56.3709H32.6642V58.2158H30.9236V59.9515H36.3127V58.1891H34.6036V54.5527H36.3491C36.3588 53.9539 36.3661 53.3576 36.3758 52.7588C36.9745 52.7588 37.5709 52.7588 38.1697 52.7588V54.577H36.3782C36.3782 55.1612 36.3782 55.7455 36.3782 56.4242H38.2158V58.2206H40.0436V59.9661H41.8352V58.1842H43.6145V56.3539H45.4861V54.5503H47.2558V52.8073H50.9188V54.5503H54.5697V58.1867H56.3418V54.5188H59.9394V52.7176H54.5842V50.9139H58.2109V47.263H59.9345V43.7358H58.143V45.5103H54.5236V49.0642H52.783V43.6073H56.3806C56.3491 42.943 56.3248 42.3758 56.2982 41.8133C55.7406 41.8133 55.1855 41.8133 54.5842 41.8133V36.4218L54.5891 36.3976ZM9.03273 16.4242V18.1697C8.44848 18.1697 7.86424 18.1697 7.28242 18.1697V16.4242H9.03273ZM3.70667 36.4267H5.46424V38.1455C4.90424 38.1455 4.34182 38.1455 3.70667 38.1455V36.4267ZM3.69212 41.7576V40.0121H5.44242V41.7576H3.69212ZM5.51515 29.103H7.26061V30.897H5.51515V29.103ZM12.6982 43.5855H10.9527V41.8861H12.6982V43.5855ZM50.9721 30.9552C51.5467 30.9552 52.1479 30.9552 52.7515 30.9552C52.737 31.5418 52.7248 32.1285 52.7103 32.7152C52.1527 32.7152 51.5951 32.7152 50.9697 32.7152V30.9552H50.9721ZM49.0352 29.1515V30.897C48.4509 30.897 47.8667 30.897 47.2848 30.897V29.1515H49.0352ZM47.2582 30.9236C47.2582 31.4836 47.2582 32.0485 47.2582 32.703H49.0667V38.177C48.5067 38.177 47.9442 38.177 47.2848 38.177V36.3952H45.4885V32.7127H43.6461C43.6461 32.1503 43.6461 31.5855 43.6461 30.9236H47.2533H47.2582ZM50.8412 41.8618V43.5782H47.3236V41.8618H50.8412ZM43.6218 38.1673C42.4533 38.1673 41.2848 38.1673 40.0194 38.1673V39.9612C38.7297 39.9612 37.537 39.9612 36.3418 39.9612V38.2158H38.1261V36.4242H43.6194V38.1673H43.6218ZM43.6267 34.48H41.8594C41.8594 33.9127 41.8594 33.3115 41.8594 32.7079C42.4485 32.7176 43.0376 32.7273 43.6267 32.7394V34.48ZM43.6485 25.423V23.6485H45.3964V27.2606H41.8303V25.423H43.6485ZM41.8061 27.2849V29.0788H40.0121V27.2849C40.6109 27.2849 41.2073 27.2849 41.8061 27.2849ZM36.3515 23.6242C35.7527 23.6242 35.1564 23.6242 34.5576 23.6242C34.5576 23.0255 34.5576 22.4291 34.5576 21.8303H36.3515V23.6242ZM36.3103 18.24V19.9806C35.7139 19.9806 35.1321 19.9806 34.5479 19.9806V18.24H36.3103ZM32.6909 18.2497V20.0049H34.5236C34.5261 20.6061 34.5285 21.2048 34.5333 21.8061C33.3285 21.8061 32.1261 21.8061 30.9212 21.8061V18.2497H32.6909ZM16.4218 12.7152V9.10546H19.9879C19.9879 9.70182 19.9879 10.3006 19.9879 10.897H18.1697V12.7152H16.4218ZM19.9661 23.5879H18.2545V21.8788H19.9661V23.5879ZM21.8061 14.5794V19.9879H20.0364V14.5818H18.1964V12.7394H20.0145V10.9212C20.6133 10.9139 21.2097 10.9042 21.8085 10.897C21.8085 10.3006 21.8085 9.70182 21.8085 9.10546C21.2097 9.09818 20.6133 9.08849 20.0145 9.08121V7.28727C20.657 7.28727 21.2339 7.28727 21.8085 7.28727C21.8182 7.88606 21.8255 8.48242 21.8352 9.08121H23.6509V10.897C24.2497 10.9067 24.8461 10.9164 25.4448 10.9236V14.5842H21.8085L21.8061 14.5794ZM27.2848 10.9212H29.0788V12.7152H27.2848V10.9212ZM27.2848 32.7152V30.897H25.4667C25.4667 30.2982 25.4667 29.7018 25.4667 29.103H27.3018V25.5152H30.9261V27.2606C31.5224 27.2606 32.1164 27.2606 32.7127 27.2606C32.7127 26.0606 32.7127 24.863 32.7127 23.6509H34.5333V25.4691H36.3515V27.2873H38.1697V29.1055H39.9879V30.8679H41.8376V32.6836C40.623 32.6933 39.4085 32.7055 38.1964 32.7152V30.8873H36.3273V29.0812H34.56V27.2873H32.7418V29.0764C33.3406 29.0861 33.937 29.0933 34.5358 29.103V32.7394H38.1721V34.5309H32.7442C32.7442 33.9709 32.7442 33.4109 32.7442 32.7588H30.9236V30.9212H32.7151V29.103C32.1188 29.103 31.5224 29.103 30.9261 29.103C30.9164 29.6994 30.9067 30.2982 30.8994 30.8945H29.1248V32.7152H27.2873H27.2848ZM32.7176 34.5552V36.3006H30.9673V34.5552C31.5515 34.5552 32.1358 34.5552 32.7176 34.5552ZM16.4194 34.5576H19.9879C19.9879 36.3685 19.9879 38.177 19.9879 39.9879C19.3891 39.9879 18.7903 39.9879 18.1939 39.9879V36.4024H16.4194V34.5552V34.5576ZM18.1261 56.3539C17.5418 56.3539 16.96 56.3539 16.3758 56.3539V52.7927H18.1261V56.3539ZM19.9564 49.023H18.1988V45.4885H16.4291V40.0145H18.1673C18.1673 41.183 18.1673 42.3515 18.1673 43.617H19.9564V49.023ZM20.0121 41.8061C20.0121 41.183 20.0121 40.5988 20.0121 40.0121H21.8061V41.8061H20.0121ZM34.6061 52.7152V50.9212H36.3515V52.7152H34.6061ZM43.5782 52.7152H38.1939C38.1964 52.1261 38.2012 51.5394 38.2036 50.9503C37.5951 50.9333 36.9867 50.9164 36.3782 50.8994C36.3782 50.3394 36.3782 49.777 36.3782 49.1249H34.56V47.2873H36.3006V43.6267H34.56V41.8885H32.7176V43.6267H30.8994V45.4449C30.303 45.4521 29.7042 45.4618 29.1079 45.4691V47.217H25.4448V45.4715H23.6267V49.0812H21.8327V41.8327H25.4715V45.4449C26.6739 45.4449 27.8739 45.4449 29.0764 45.4449V41.777H30.8582V39.983H29.1055V38.1964H34.5285V39.9855H36.3224C36.3515 40.5697 36.3806 41.1539 36.4121 41.7964H38.1455V43.6073H40.0194V45.44H43.5782V47.263H41.8715V50.8655H43.583V52.7176L43.5782 52.7152ZM45.3964 43.5879H43.68V41.8449H41.8642V40.0436H43.6461C43.6461 39.3648 43.6461 38.7782 43.6461 38.1915H45.3964V43.5879ZM50.8461 50.8558H45.4667V45.5249H50.8461V50.8558ZM52.6594 39.9394H49.0933C49.0933 39.3649 49.0933 38.783 49.0933 38.2012H52.6594V39.9394ZM54.4848 34.4897H52.7394C52.7394 33.9055 52.7394 33.3212 52.7394 32.7394H54.4848V34.4897Z" fill="#CFCDBE"/>
<path id="Vector_11" d="M43.6461 58.165H43.6194V58.1917L43.6461 58.165Z" fill="#CFCDBE"/>
<path id="Vector_12" d="M40.017 45.4642V45.4375H39.9903L40.017 45.4642Z" fill="#CFCDBE"/>
<path id="Vector_13" d="M56.303 41.7889C56.303 41.7889 56.3224 41.7889 56.3321 41.7889L56.303 41.7646C56.303 41.7719 56.303 41.7816 56.303 41.7889Z" fill="#CFCDBE"/>
<path id="Vector_14" d="M52.7103 29.0811C52.7103 29.0811 52.7103 29.1004 52.7103 29.1077H52.737L52.7103 29.0811Z" fill="#CFCDBE"/>
<path id="Vector_15" d="M56.3733 58.165H56.3467V58.1917L56.3733 58.165Z" fill="#CFCDBE"/>
<path id="Vector_16" d="M23.6243 50.8926C23.6243 50.8926 23.6243 50.912 23.6243 50.9217C23.634 50.9217 23.6412 50.9217 23.6509 50.9217V50.8926H23.6243Z" fill="#CFCDBE"/>
<path id="Vector_17" d="M58.1649 18.1719V18.1985H58.1915L58.1649 18.1719Z" fill="#CFCDBE"/>
<path id="Vector_18" d="M58.2303 25.4161H59.937V23.5979H58.1648V18.1991H56.32V14.5967H47.3358V18.1967H50.8945C50.8945 19.993 50.8945 21.7894 50.8945 23.5882H54.5551V21.8815H56.3976V27.273C56.9794 27.273 57.5612 27.273 58.2303 27.273V25.4161ZM52.6885 16.4294C52.6885 16.9967 52.6885 17.5979 52.6885 18.2015C52.0994 18.1918 51.5103 18.1821 50.9212 18.17V16.4294H52.6885ZM54.5042 19.9324H52.7103V18.2282C53.2945 18.2282 53.8788 18.2282 54.5042 18.2282V19.9324Z" fill="#CFCDBE"/>
<path id="Vector_19" d="M56.3951 27.2725C56.3951 27.2725 56.3782 27.2725 56.3685 27.2725L56.3951 27.2967V27.2725Z" fill="#CFCDBE"/>
<path id="Vector_20" d="M41.8036 19.9883V20.0149H41.8303V19.9883H41.8036Z" fill="#CFCDBE"/>
<path id="Vector_21" d="M32.7394 10.9236V10.8945H32.7127V10.9236H32.7394Z" fill="#CFCDBE"/>
<path id="Vector_22" d="M36.3515 54.5332C36.3515 54.5332 36.3515 54.5502 36.3515 54.5599H36.3806V54.5332H36.3515Z" fill="#CFCDBE"/>
<path id="Vector_23" d="M30.897 54.5332V54.5599H30.9261V54.5332H30.897Z" fill="#CFCDBE"/>
<path id="Vector_24" d="M43.6364 18.1845L43.6243 18.199H43.6509V18.1699H43.6243V18.199C43.6243 18.199 43.6315 18.1917 43.6364 18.1845Z" fill="#CFCDBE"/>
<path id="Vector_25" d="M41.8303 18.1699H41.8036V18.1966H41.8303V18.1699Z" fill="#CFCDBE"/>
<path id="Vector_26" d="M38.1939 12.7415V12.7148H38.1697V12.7415H38.1939Z" fill="#CFCDBE"/>
<path id="Vector_27" d="M41.8303 14.5164V18.1697H43.6218V16.3273H45.3794V10.9648H43.617V12.6667H41.794V10.9673H39.9734V12.7418H38.194V14.5164H41.8303Z" fill="#CFCDBE"/>
<path id="Vector_28" d="M27.2848 7.2869C27.2848 7.2869 27.2848 7.26751 27.2848 7.25781L27.2582 7.2869C27.2582 7.2869 27.2751 7.2869 27.2848 7.2869Z" fill="#CFCDBE"/>
<path id="Vector_29" d="M52.7103 29.0811L52.737 29.1077V29.0811H52.7103Z" fill="#CFCDBE"/>
<path id="Vector_30" d="M56.3685 27.2725C56.3685 27.2725 56.3685 27.2894 56.3685 27.2967C56.3782 27.2967 56.3854 27.2967 56.3951 27.2967L56.3685 27.2725Z" fill="#CFCDBE"/>
<path id="Vector_31" d="M56.3685 27.2965C55.7842 27.2965 55.1976 27.2965 54.5236 27.2965V25.5244H52.737V29.0808C53.9248 29.0808 55.1127 29.0808 56.3685 29.0808C56.3685 28.419 56.3685 27.8565 56.3685 27.2965Z" fill="#CFCDBE"/>
<path id="Vector_32" d="M47.2727 54.5429L47.2848 54.5283H47.2582V54.5574H47.2848V54.5283C47.2848 54.5283 47.2776 54.5356 47.2727 54.5429Z" fill="#CFCDBE"/>
<path id="Vector_33" d="M49.0788 58.165V58.1941H49.1055V58.165H49.0788Z" fill="#CFCDBE"/>
<path id="Vector_34" d="M47.2849 58.1649H49.0764V56.3491H50.8921C50.8921 55.7528 50.8921 55.154 50.8945 54.5576H47.2849V58.1649Z" fill="#CFCDBE"/>
<path id="Vector_35" d="M50.897 54.5574H50.9236V54.5283H50.897V54.5574Z" fill="#CFCDBE"/>
<path id="Vector_36" d="M58.1649 32.7178L58.1915 32.7444V32.7178H58.1649Z" fill="#CFCDBE"/>
<path id="Vector_37" d="M59.937 29.1641H58.1915V32.718C58.7733 32.718 59.3552 32.718 59.937 32.718V29.1641Z" fill="#CFCDBE"/>
<path id="Vector_38" d="M59.9297 36.3001V34.5547H58.1915C58.1915 35.1341 58.1915 35.7159 58.1915 36.3001H59.9297Z" fill="#CFCDBE"/>
<path id="Vector_39" d="M58.1915 34.5283L58.1649 34.555H58.1915V34.5283Z" fill="#CFCDBE"/>
<path id="Vector_40" d="M9.0788 39.9883C9.0788 39.9883 9.0788 40.0053 9.0788 40.0149H9.10789V39.9883H9.0788Z" fill="#CFCDBE"/>
<path id="Vector_41" d="M7.26062 38.1937C7.26062 38.1937 7.27759 38.1937 7.28729 38.1937V38.167L7.26062 38.1937Z" fill="#CFCDBE"/>
<path id="Vector_42" d="M58.1988 40.0101V39.9834H58.1721L58.1988 40.0101Z" fill="#CFCDBE"/>
<path id="Vector_43" d="M58.1988 39.9828H59.9539V38.2422H58.1988V39.9828Z" fill="#CFCDBE"/>
<path id="Vector_44" d="M56.3297 41.7673C56.9333 41.7673 57.537 41.7673 58.1697 41.7673V40.0098C57.5903 40.0098 57.0085 40.0098 56.3273 40.0098C56.3273 40.657 56.3273 41.2122 56.3273 41.7673H56.3297Z" fill="#CFCDBE"/>
<path id="Vector_45" d="M58.1988 40.0101L58.1721 39.9834V40.0101H58.1988Z" fill="#CFCDBE"/>
<path id="Vector_46" d="M56.3297 41.7889C56.3297 41.7889 56.3297 41.7743 56.3297 41.7646C56.32 41.7646 56.3103 41.7646 56.3006 41.7646L56.3297 41.7889Z" fill="#CFCDBE"/>
<path id="Vector_47" d="M58.1649 18.1719L58.1915 18.1985V18.1719H58.1649Z" fill="#CFCDBE"/>
<path id="Vector_48" d="M59.937 16.4336H58.1915V18.1718C58.7709 18.1718 59.3527 18.1718 59.937 18.1718V16.4336Z" fill="#CFCDBE"/>
<path id="Vector_49" d="M38.1697 10.9766H36.3757V12.7147C36.9745 12.7147 37.5709 12.7147 38.1697 12.7147V10.9766Z" fill="#CFCDBE"/>
<path id="Vector_50" d="M36.3758 12.7148H36.3491V12.7439H36.3758V12.7148Z" fill="#CFCDBE"/>
<path id="Vector_51" d="M38.194 9.02334H39.9855V7.28516C39.3891 7.28516 38.7903 7.28516 38.194 7.28516V9.02334Z" fill="#CFCDBE"/>
<path id="Vector_52" d="M39.9879 7.28495H40.0145V7.25586H39.9879V7.28495Z" fill="#CFCDBE"/>
<path id="Vector_53" d="M29.1588 56.376V58.1675H30.897C30.897 57.5711 30.897 56.9723 30.897 56.376C30.3176 56.376 29.7358 56.376 29.1588 56.376Z" fill="#CFCDBE"/>
<path id="Vector_54" d="M30.9115 56.3632L30.9261 56.3753V56.3486H30.897V56.3753H30.9261C30.9261 56.3753 30.9188 56.368 30.9115 56.3632Z" fill="#CFCDBE"/>
<path id="Vector_55" d="M30.897 58.1699V58.1966H30.9261V58.1699H30.897Z" fill="#CFCDBE"/>
<path id="Vector_56" d="M52.6594 58.167V56.3779H50.9212C50.9212 56.9743 50.9212 57.5707 50.9212 58.167H52.6594Z" fill="#CFCDBE"/>
<path id="Vector_57" d="M50.9212 56.3753V56.3486H50.8921C50.8921 56.3486 50.8921 56.3656 50.8921 56.3753H50.9212Z" fill="#CFCDBE"/>
<path id="Vector_58" d="M45.3842 59.9369V58.1914H43.6461C43.6461 58.7708 43.6461 59.3526 43.6461 59.9369H45.3842Z" fill="#CFCDBE"/>
<path id="Vector_59" d="M43.6461 58.165L43.6194 58.1917H43.6461V58.165Z" fill="#CFCDBE"/>
<path id="Vector_60" d="M49.103 59.9325H50.8945V58.1943C50.2982 58.1943 49.6994 58.1943 49.103 58.1943V59.9325Z" fill="#CFCDBE"/>
<path id="Vector_61" d="M50.897 58.1941H50.9236V58.165H50.897V58.1941Z" fill="#CFCDBE"/>
<path id="Vector_62" d="M56.3733 58.165L56.3467 58.1917H56.3733V58.165Z" fill="#CFCDBE"/>
<path id="Vector_63" d="M58.1115 59.9369V58.1914H56.3733C56.3733 58.7708 56.3733 59.3526 56.3733 59.9369H58.1115Z" fill="#CFCDBE"/>
<path id="Vector_64" d="M16.3782 25.4424H16.3491C16.3491 25.4424 16.3491 25.4594 16.3491 25.469H16.3782V25.4424Z" fill="#CFCDBE"/>
<path id="Vector_65" d="M10.897 25.4424V25.469H10.9236V25.4424H10.897Z" fill="#CFCDBE"/>
<path id="Vector_66" d="M12.7394 23.6487V23.6221H12.7103V23.6487H12.7394Z" fill="#CFCDBE"/>
<path id="Vector_67" d="M20 1.81826L20.0146 1.83038C20.0146 1.83038 20.0146 1.81341 20.0146 1.80371H19.9855V1.83038H20.0146C20.0146 1.83038 20.0073 1.8231 20 1.81826Z" fill="#CFCDBE"/>
<path id="Vector_68" d="M19.9854 1.83008C18.7951 1.83008 17.6048 1.83008 16.3757 1.83008V3.62159H19.9854C19.9854 3.02523 19.9854 2.42644 19.9854 1.83008Z" fill="#CFCDBE"/>
<path id="Vector_69" d="M16.3758 3.62402H16.3491V3.65311H16.3758V3.62402Z" fill="#CFCDBE"/>
<path id="Vector_70" d="M19.9879 3.62402V3.65069H20.0145V3.62402H19.9879Z" fill="#CFCDBE"/>
<path id="Vector_71" d="M27.2848 7.26074C27.2848 7.26074 27.2679 7.26074 27.2582 7.26074V7.28983L27.2848 7.26074Z" fill="#CFCDBE"/>
<path id="Vector_72" d="M25.4667 5.4671C25.4667 5.4671 25.4667 5.45013 25.4667 5.44043H25.4376V5.4671H25.4667Z" fill="#CFCDBE"/>
<path id="Vector_73" d="M21.8012 34.5361V34.5628C21.8012 34.5628 21.8206 34.5628 21.8279 34.5628L21.8012 34.5361Z" fill="#CFCDBE"/>
<path id="Vector_74" d="M29.0764 45.4424V45.469C29.0764 45.469 29.0957 45.469 29.1054 45.469V45.4424H29.0764Z" fill="#CFCDBE"/>
<path id="Vector_75" d="M25.4691 45.4424H25.44V45.469H25.4691V45.4424Z" fill="#CFCDBE"/>
<path id="Vector_76" d="M21.8012 34.5361L21.8279 34.5628V34.5361C21.8279 34.5361 21.8085 34.5361 21.8012 34.5361Z" fill="#CFCDBE"/>
<path id="Vector_77" d="M23.6364 32.7979H21.8303V34.536C22.4315 34.5288 23.0352 34.5215 23.6364 34.5142V32.7979Z" fill="#CFCDBE"/>
<path id="Vector_78" d="M23.663 34.5112C23.663 34.5112 23.646 34.5112 23.6364 34.5112V34.5379L23.663 34.5088V34.5112Z" fill="#CFCDBE"/>
<path id="Vector_79" d="M23.6606 34.5137L23.6339 34.5403H23.6606C23.6606 34.5403 23.6606 34.5209 23.6606 34.5137Z" fill="#CFCDBE"/>
<path id="Vector_80" d="M25.3915 36.3083V34.541H23.663C23.663 35.1228 23.663 35.7022 23.663 36.3083H25.3915Z" fill="#CFCDBE"/>
<path id="Vector_81" d="M56.3127 3.67969H50.977V9.01544H56.3127V3.67969Z" fill="#CFCDBE"/>
<path id="Vector_82" d="M9.02061 3.71387H3.6897V9.0472H9.02061V3.71387Z" fill="#CFCDBE"/>
<path id="Vector_83" d="M3.70422 56.2889H9.03756V50.9531H3.70422V56.2889Z" fill="#CFCDBE"/>
<path id="Vector_84" d="M21.8327 9.10284V9.07617H21.8036L21.8327 9.10284Z" fill="#CFCDBE"/>
<path id="Vector_85" d="M38.2449 47.2025H39.9903V45.4619C39.4109 45.4619 38.8291 45.4619 38.2449 45.4619V47.2025Z" fill="#CFCDBE"/>
<path id="Vector_86" d="M40.017 45.4642L39.9903 45.4375V45.4642H40.017Z" fill="#CFCDBE"/>
<path id="Vector_87" d="M39.9394 49.1636H38.2327V50.9236C38.8121 50.9236 39.3915 50.9236 39.9394 50.9236V49.1611V49.1636Z" fill="#CFCDBE"/>
<path id="Vector_88" d="M38.2327 50.9238C38.2327 50.9238 38.2133 50.9238 38.2036 50.9238L38.2327 50.9505V50.9238Z" fill="#CFCDBE"/>
<path id="Vector_89" d="M38.2036 50.924C38.2036 50.924 38.2036 50.941 38.2036 50.9482C38.2133 50.9482 38.223 50.9482 38.2327 50.9482C38.2327 50.9482 38.2036 50.9216 38.2036 50.924Z" fill="#CFCDBE"/>
<path id="Vector_90" d="M30.9261 27.2845V27.2578H30.897L30.9261 27.2845Z" fill="#CFCDBE"/>
<path id="Vector_91" d="M32.7394 27.2845V27.2578H32.7103V27.2845H32.7394Z" fill="#CFCDBE"/>
<path id="Vector_92" d="M49.0497 47.3213H47.3285V49.0255H49.0497V47.3213Z" fill="#CFCDBE"/>
<path id="Vector_93" d="M32.7151 29.1033H32.7418V29.0742H32.7151V29.1033Z" fill="#CFCDBE"/>
<path id="Vector_94" d="M30.897 29.0791V29.1058H30.9261C30.9261 29.1058 30.9261 29.0888 30.9261 29.0791H30.897Z" fill="#CFCDBE"/>
<path id="Vector_95" d="M29.1588 27.2852V29.0767H30.897C30.897 28.4803 30.897 27.8815 30.897 27.2852H29.1588Z" fill="#CFCDBE"/>
<path id="Vector_96" d="M30.897 27.2607V27.2874H30.9261L30.897 27.2607Z" fill="#CFCDBE"/>
<path id="Vector_97" d="M25.5248 21.743H27.2461V19.9951C26.6667 19.9951 26.0897 19.9951 25.5248 19.9951V21.743Z" fill="#CFCDBE"/>
<path id="Vector_98" d="M27.246 19.9949C27.246 19.9949 27.263 19.9949 27.2727 19.9949C27.2727 19.9949 27.2654 19.9876 27.2606 19.9828L27.2727 19.9949V19.9658H27.246V19.9949Z" fill="#CFCDBE"/>
<path id="Vector_99" d="M21.8327 12.6591H23.6218V10.9209C23.0254 10.9209 22.4291 10.9209 21.8327 10.9209V12.6591Z" fill="#CFCDBE"/>
<path id="Vector_100" d="M23.6243 10.9217H23.6509V10.8926C23.6509 10.8926 23.634 10.8926 23.6243 10.8926V10.9217Z" fill="#CFCDBE"/>
<path id="Vector_101" d="M21.8327 10.9212V10.8945H21.8036V10.9212H21.8327Z" fill="#CFCDBE"/>
<path id="Vector_102" d="M21.806 9.0791V9.10577C21.806 9.10577 21.8254 9.10577 21.8351 9.10577L21.806 9.0791Z" fill="#CFCDBE"/>
</g>
<defs>
<clipPath id="clip0_34269_440">
<rect width="60" height="60" fill="white"/>
</clipPath>
</defs>
</svg>
