<svg width="152" height="36" viewBox="0 0 152 36" fill="none" xmlns="http://www.w3.org/2000/svg">
<path d="M127.62 9.44104C127.216 9.18538 126.785 8.95587 126.327 8.75542C125.175 8.25863 123.867 8.00879 122.406 8.00879C122.362 8.00879 122.317 8.01169 122.272 8.01169C122.227 8.01169 122.182 8.00879 122.137 8.00879C120.677 8.00879 119.369 8.25863 118.216 8.75542C117.737 8.96168 117.292 9.20281 116.87 9.47009C116.28 9.84776 115.747 10.2864 115.274 10.789C114.466 11.6461 113.847 12.6542 113.41 13.8104C112.973 14.9667 112.757 16.1926 112.757 17.4854C112.757 18.7782 112.982 20.042 113.431 21.1982C113.88 22.3545 114.508 23.3626 115.313 24.2196C115.78 24.7164 116.301 25.1493 116.87 25.5211C117.286 25.7913 117.726 26.0324 118.195 26.2358C119.312 26.721 120.533 26.9621 121.868 26.9621C122.002 26.9621 122.137 26.9592 122.272 26.9505C122.406 26.9563 122.541 26.9621 122.676 26.9621C124.008 26.9621 125.232 26.721 126.348 26.2358C126.818 26.0324 127.258 25.7913 127.674 25.5211V27.1509C127.674 28.8185 127.162 30.1055 126.136 31.0119C125.163 31.8747 123.87 32.3221 122.272 32.3657C122.188 32.3657 122.107 32.3744 122.02 32.3744C120.943 32.3744 119.943 32.1362 119.021 31.6656C118.1 31.192 117.381 30.5587 116.87 29.7627L113.862 31.6481L113.718 31.7382C114.538 33.0078 115.678 34.0333 117.139 34.8177C118.599 35.6021 120.24 35.9943 122.059 35.9943C122.131 35.9943 122.2 35.9943 122.272 35.9914C123.648 35.971 124.905 35.7706 126.04 35.3784C127.231 34.9687 128.258 34.3761 129.116 33.6062C129.745 33.0397 130.266 32.389 130.682 31.6481C130.834 31.378 130.972 31.0991 131.095 30.8056C131.556 29.7104 131.786 28.467 131.786 27.0754V8.01169H127.62V9.44394V9.44104ZM127.24 19.7253C126.986 20.4168 126.629 21.0181 126.174 21.5352C125.717 22.0524 125.154 22.4649 124.48 22.7728C123.825 23.075 123.086 23.2261 122.272 23.2319C121.458 23.2261 120.721 23.075 120.063 22.7728C119.39 22.4649 118.827 22.0524 118.369 21.5352C117.911 21.0181 117.555 20.4139 117.304 19.7253C117.049 19.0368 116.923 18.296 116.923 17.5087C116.923 16.7214 117.049 15.9748 117.304 15.2717C117.558 14.5687 117.914 13.9586 118.369 13.4415C118.815 12.936 119.357 12.535 119.997 12.2271C120.015 12.2184 120.033 12.2068 120.051 12.2009C120.153 12.1545 120.258 12.1167 120.362 12.0789C120.434 12.0528 120.503 12.0208 120.575 11.9976C120.712 11.954 120.853 11.9191 120.997 11.8843C121.033 11.8756 121.066 11.8639 121.102 11.8581C121.47 11.7826 121.859 11.7448 122.269 11.7448C122.679 11.7448 123.068 11.7826 123.436 11.8581C123.472 11.8669 123.505 11.8785 123.541 11.8843C123.684 11.9162 123.825 11.9511 123.963 11.9976C124.035 12.0208 124.103 12.0528 124.175 12.0789C124.28 12.1196 124.385 12.1545 124.486 12.2009C124.504 12.2097 124.522 12.2184 124.54 12.2271C125.181 12.5321 125.723 12.936 126.168 13.4415C126.626 13.9586 126.983 14.5687 127.234 15.2717C127.488 15.9748 127.614 16.7185 127.614 17.5087C127.614 18.2989 127.488 19.0368 127.234 19.7253H127.24Z" fill="white"/>
<path d="M35.5136 10.7802C34.6666 9.92322 33.661 9.24341 32.4968 8.74663C31.3295 8.24984 30.0426 8 28.6329 8C27.2233 8 25.8915 8.24984 24.7123 8.74663C23.5331 9.24341 22.5274 9.92322 21.6954 10.7802C20.8634 11.6373 20.2199 12.6454 19.774 13.8016C19.3251 14.9579 19.1006 16.1839 19.1006 17.4767C19.1006 18.7695 19.331 20.0332 19.7919 21.1895C20.2528 22.3457 20.9053 23.3538 21.7523 24.2108C22.5993 25.0679 23.6049 25.7477 24.7691 26.2444C25.9364 26.7412 27.2233 26.9911 28.6329 26.9911C30.0426 26.9911 31.3295 26.7412 32.4968 26.2444C33.664 25.7477 34.6696 25.0679 35.5136 24.2108C36.3606 23.3538 37.013 22.3457 37.4739 21.1895C37.9349 20.0332 38.1653 18.7956 38.1653 17.4767C38.1653 16.1577 37.9349 14.9579 37.4739 13.8016C37.013 12.6454 36.3606 11.6373 35.5136 10.7802ZM33.67 19.7165C33.4126 20.4138 33.0475 21.0239 32.5746 21.5439C32.0987 22.0668 31.5301 22.4764 30.8627 22.7757C30.1952 23.0749 29.453 23.2231 28.6329 23.2231C27.8129 23.2231 27.0707 23.0749 26.4032 22.7757C25.7358 22.4764 25.1672 22.0668 24.6913 21.5439C24.2154 21.021 23.8503 20.4109 23.5959 19.7165C23.3385 19.0193 23.2128 18.2727 23.2128 17.4767C23.2128 16.6806 23.3415 15.934 23.5959 15.2368C23.8503 14.5395 24.2154 13.9294 24.6913 13.4094C25.1642 12.8865 25.7358 12.4769 26.4032 12.1776C27.0707 11.8784 27.8129 11.7302 28.6329 11.7302C29.453 11.7302 30.1952 11.8784 30.8627 12.1776C31.5301 12.4769 32.0987 12.8865 32.5746 13.4094C33.0475 13.9324 33.4126 14.5424 33.67 15.2368C33.9244 15.934 34.0531 16.6806 34.0531 17.4767C34.0531 18.2727 33.9244 19.0193 33.67 19.7165Z" fill="white"/>
<path d="M52.0883 8.01172L46.8986 21.0559L41.7449 8.01172H37.3633L45.3992 26.9796H48.3592L56.3921 8.01172H52.0883Z" fill="white"/>
<path d="M151.366 13.6652C150.944 12.5583 150.333 11.588 149.54 10.7542C148.744 9.92041 147.783 9.25513 146.658 8.75835C145.529 8.26156 144.26 8.01172 142.851 8.01172C141.441 8.01172 140.121 8.26156 138.969 8.75835C137.817 9.25513 136.835 9.93494 136.027 10.792C135.219 11.649 134.605 12.6571 134.18 13.8133C133.758 14.9696 133.546 16.1956 133.546 17.4884C133.546 18.8567 133.776 20.1263 134.237 21.2941C134.698 22.4649 135.366 23.4701 136.237 24.3155C137.107 25.1609 138.146 25.8204 139.349 26.2939C140.552 26.7675 141.911 27.0028 143.425 27.0028C145.066 27.0028 146.592 26.6919 148.002 26.0702C149.411 25.4485 150.602 24.4898 151.578 23.197L148.388 21.3319C147.72 22.1773 146.96 22.77 146.101 23.1041C145.242 23.4411 144.365 23.6067 143.467 23.6067C141.8 23.6067 140.462 23.1593 139.451 22.2645C138.439 21.3697 137.868 20.1989 137.739 18.7579H151.925C151.949 18.6098 151.97 18.3919 151.982 18.1043C151.994 17.8196 152 17.5 152 17.1514C152 15.9312 151.788 14.7691 151.366 13.6623V13.6652ZM137.853 15.847C137.981 14.6936 138.493 13.7204 139.391 12.9302C140.289 12.14 141.453 11.742 142.89 11.742C143.581 11.742 144.222 11.8494 144.811 12.0644C145.401 12.2794 145.907 12.5728 146.329 12.9476C146.751 13.3195 147.092 13.7552 147.346 14.2549C147.601 14.7517 147.756 15.2834 147.807 15.8499H137.85L137.853 15.847Z" fill="white"/>
<path d="M71.5809 10.8472C70.7339 9.90298 69.7223 9.19412 68.5431 8.72058C67.3639 8.24704 66.1967 8.01172 65.0445 8.01172C63.6857 8.01172 62.4287 8.25285 61.2764 8.73801C60.1241 9.22317 59.1245 9.89427 58.2775 10.7542C57.4305 11.6112 56.7721 12.6135 56.2992 13.7581C55.8234 14.9028 55.5869 16.1462 55.5869 17.4913C55.5869 18.8364 55.8234 20.0914 56.2992 21.2593C56.7721 22.4301 57.4275 23.4353 58.2596 24.2807C59.0916 25.1261 60.0673 25.7913 61.1806 26.2765C62.297 26.7617 63.4941 27.0028 64.7751 27.0028C65.9543 27.0028 67.1335 26.7413 68.3127 26.2184C69.4919 25.6955 70.8626 25.068 71.5809 24.1209V27.0028H76.9921V24.1674H74.8881V10.8472H76.9921V8.01172H71.5809V10.8472ZM70.3748 19.6585C70.1084 20.3877 69.7253 21.0182 69.2285 21.5498C68.7317 22.0814 68.1451 22.494 67.4717 22.7932C66.7953 23.0895 66.0531 23.2377 65.236 23.2377C64.4189 23.2377 63.6827 23.0895 63.0213 22.7932C62.3598 22.4969 61.7792 22.0873 61.2824 21.5701C60.7856 21.0501 60.4025 20.44 60.1361 19.7341C59.8697 19.031 59.7351 18.2699 59.7351 17.4535C59.7351 16.6372 59.8757 15.8847 60.1541 15.1904C60.4354 14.499 60.8155 13.8918 61.3003 13.3747C61.7852 12.8546 62.3628 12.4479 63.0392 12.1516C63.7126 11.8553 64.4459 11.7071 65.236 11.7071C66.0261 11.7071 66.7953 11.8553 67.4717 12.1516C68.1451 12.4479 68.7317 12.8517 69.2285 13.3572C69.7253 13.8627 70.1084 14.4496 70.3748 15.1178C70.6412 15.7859 70.7758 16.5035 70.7758 17.2676C70.7758 18.1333 70.6412 18.9293 70.3748 19.6585Z" fill="white"/>
<path d="M15.9402 11.4135C15.6708 11.0184 15.3716 10.6524 15.0334 10.3241C14.6922 9.99289 14.3181 9.70528 13.917 9.44962C13.4741 9.16782 12.9952 8.9296 12.4744 8.73786C11.2533 8.29046 9.93347 7.99995 8.63156 8.01157C7.34462 8.02609 6.07563 8.29627 4.86351 8.73786C4.34574 8.92669 3.86688 9.16782 3.42094 9.44962C3.01989 9.70528 2.64578 9.9958 2.30459 10.3241C2.08012 10.542 1.87361 10.7831 1.67908 11.0329C1.25408 11.5762 0.894938 12.1892 0.613606 12.8806C0.20358 13.8887 -0.00292969 15.0275 -0.00292969 16.2942V27.0056H4.07339V16.6312C4.07339 15.3704 4.34874 14.1444 5.34836 13.2815C6.29711 12.4652 7.53018 11.9161 8.79916 11.951C9.90354 11.9829 10.96 12.4565 11.813 13.1363C12.3218 13.543 12.7169 13.9904 12.9353 14.5976C13.1688 15.2483 13.2616 15.9427 13.2616 16.6283V27.0026H17.3379V16.2942C17.3379 15.0246 17.1314 13.8858 16.7213 12.8806C16.5029 12.3461 16.2395 11.8609 15.9372 11.4135H15.9402Z" fill="white"/>
<path d="M110.833 8.64505C109.95 8.34581 109.058 8.19765 108.16 8.19765C106.954 8.19765 105.867 8.45911 104.892 8.98204C103.916 9.50497 103.162 10.2022 102.623 11.0709V11.0621L102.62 10.8472V8.01172H97.209V10.8472H99.2771V24.1703H97.209V27.0057H103.353V15.7366C103.56 14.6181 104.09 13.6971 104.949 12.9737C105.808 12.2533 106.801 11.893 107.93 11.893C108.546 11.893 109.115 11.986 109.641 12.1719C110.165 12.3578 110.698 12.6396 111.237 13.0115L113.275 9.95237C112.533 9.38005 111.719 8.94428 110.833 8.64505Z" fill="white"/>
<path d="M90.951 17.1077C91.388 17.3517 91.388 17.9647 90.951 18.2088L87.7815 19.9867L84.612 21.7647C84.1751 22.0087 83.6304 21.7037 83.6304 21.2156V17.6626V14.1096C83.6304 13.6215 84.1751 13.3165 84.612 13.5605L87.7815 15.3385L90.951 17.1164V17.1077Z" fill="#FA2A2A"/>
</svg>
