<svg width="152" height="28" viewBox="0 0 152 28" fill="none" xmlns="http://www.w3.org/2000/svg">
<path d="M127.62 1.44104C127.216 1.18538 126.785 0.955873 126.327 0.755417C125.175 0.258633 123.867 0.00878906 122.406 0.00878906C122.362 0.00878906 122.317 0.0116942 122.272 0.0116942C122.227 0.0116942 122.182 0.00878906 122.137 0.00878906C120.677 0.00878906 119.369 0.258633 118.216 0.755417C117.737 0.961684 117.292 1.20281 116.87 1.47009C116.28 1.84776 115.747 2.28644 115.274 2.78903C114.466 3.64606 113.847 4.65415 113.41 5.81041C112.973 6.96666 112.757 8.19265 112.757 9.48545C112.757 10.7782 112.982 12.042 113.431 13.1982C113.88 14.3545 114.508 15.3626 115.313 16.2196C115.78 16.7164 116.301 17.1493 116.87 17.5211C117.286 17.7913 117.726 18.0324 118.195 18.2358C119.312 18.721 120.533 18.9621 121.868 18.9621C122.002 18.9621 122.137 18.9592 122.272 18.9505C122.406 18.9563 122.541 18.9621 122.676 18.9621C124.008 18.9621 125.232 18.721 126.348 18.2358C126.818 18.0324 127.258 17.7913 127.674 17.5211V19.1509C127.674 20.8185 127.162 22.1055 126.136 23.0119C125.163 23.8747 123.87 24.3221 122.272 24.3657C122.188 24.3657 122.107 24.3744 122.02 24.3744C120.943 24.3744 119.943 24.1362 119.021 23.6656C118.1 23.192 117.381 22.5587 116.87 21.7627L113.862 23.6481L113.718 23.7382C114.538 25.0078 115.678 26.0333 117.139 26.8177C118.599 27.6021 120.24 27.9943 122.059 27.9943C122.131 27.9943 122.2 27.9943 122.272 27.9914C123.648 27.971 124.905 27.7706 126.04 27.3784C127.231 26.9687 128.258 26.3761 129.116 25.6062C129.745 25.0397 130.266 24.389 130.682 23.6481C130.834 23.378 130.972 23.0991 131.095 22.8056C131.556 21.7104 131.786 20.467 131.786 19.0754V0.0116942H127.62V1.44394V1.44104ZM127.24 11.7253C126.986 12.4168 126.629 13.0181 126.174 13.5352C125.717 14.0524 125.154 14.4649 124.48 14.7728C123.825 15.075 123.086 15.2261 122.272 15.2319C121.458 15.2261 120.721 15.075 120.063 14.7728C119.39 14.4649 118.827 14.0524 118.369 13.5352C117.911 13.0181 117.555 12.4139 117.304 11.7253C117.049 11.0368 116.923 10.296 116.923 9.50869C116.923 8.72139 117.049 7.97476 117.304 7.27171C117.558 6.56866 117.914 5.95857 118.369 5.44145C118.815 4.93595 119.357 4.53504 119.997 4.22709C120.015 4.21838 120.033 4.20676 120.051 4.20095C120.153 4.15446 120.258 4.1167 120.362 4.07893C120.434 4.05278 120.503 4.02082 120.575 3.99758C120.712 3.95401 120.853 3.91914 120.997 3.88428C121.033 3.87557 121.066 3.86395 121.102 3.85814C121.47 3.7826 121.859 3.74483 122.269 3.74483C122.679 3.74483 123.068 3.7826 123.436 3.85814C123.472 3.86685 123.505 3.87847 123.541 3.88428C123.684 3.91624 123.825 3.9511 123.963 3.99758C124.035 4.02082 124.103 4.05278 124.175 4.07893C124.28 4.1196 124.385 4.15446 124.486 4.20095C124.504 4.20966 124.522 4.21838 124.54 4.22709C125.181 4.53213 125.723 4.93595 126.168 5.44145C126.626 5.95857 126.983 6.56866 127.234 7.27171C127.488 7.97476 127.614 8.71848 127.614 9.50869C127.614 10.2989 127.488 11.0368 127.234 11.7253H127.24Z" fill="#1D1D1B"/>
<path d="M35.5136 2.78024C34.6666 1.92322 33.661 1.24341 32.4968 0.746628C31.3295 0.249844 30.0426 0 28.6329 0C27.2233 0 25.8915 0.249844 24.7123 0.746628C23.5331 1.24341 22.5274 1.92322 21.6954 2.78024C20.8634 3.63727 20.2199 4.64536 19.774 5.80162C19.3251 6.95787 19.1006 8.18386 19.1006 9.47666C19.1006 10.7695 19.331 12.0332 19.7919 13.1895C20.2528 14.3457 20.9053 15.3538 21.7523 16.2108C22.5993 17.0679 23.6049 17.7477 24.7691 18.2444C25.9364 18.7412 27.2233 18.9911 28.6329 18.9911C30.0426 18.9911 31.3295 18.7412 32.4968 18.2444C33.664 17.7477 34.6696 17.0679 35.5136 16.2108C36.3606 15.3538 37.013 14.3457 37.4739 13.1895C37.9349 12.0332 38.1653 10.7956 38.1653 9.47666C38.1653 8.15771 37.9349 6.95787 37.4739 5.80162C37.013 4.64536 36.3606 3.63727 35.5136 2.78024ZM33.67 11.7165C33.4126 12.4138 33.0475 13.0239 32.5746 13.5439C32.0987 14.0668 31.5301 14.4764 30.8627 14.7757C30.1952 15.0749 29.453 15.2231 28.6329 15.2231C27.8129 15.2231 27.0707 15.0749 26.4032 14.7757C25.7358 14.4764 25.1672 14.0668 24.6913 13.5439C24.2154 13.021 23.8503 12.4109 23.5959 11.7165C23.3385 11.0193 23.2128 10.2727 23.2128 9.47666C23.2128 8.68064 23.3415 7.93401 23.5959 7.23677C23.8503 6.53953 24.2154 5.92945 24.6913 5.40942C25.1642 4.88649 25.7358 4.47686 26.4032 4.17763C27.0707 3.8784 27.8129 3.73023 28.6329 3.73023C29.453 3.73023 30.1952 3.8784 30.8627 4.17763C31.5301 4.47686 32.0987 4.88649 32.5746 5.40942C33.0475 5.93235 33.4126 6.54244 33.67 7.23677C33.9244 7.93401 34.0531 8.68064 34.0531 9.47666C34.0531 10.2727 33.9244 11.0193 33.67 11.7165Z" fill="#1D1D1B"/>
<path d="M52.0883 0.0117188L46.8986 13.0559L41.7449 0.0117188H37.3633L45.3992 18.9796H48.3592L56.3921 0.0117188H52.0883Z" fill="#1D1D1B"/>
<path d="M151.366 5.66517C150.944 4.5583 150.333 3.58798 149.54 2.7542C148.744 1.92041 147.783 1.25513 146.658 0.758347C145.529 0.261563 144.26 0.0117188 142.851 0.0117188C141.441 0.0117188 140.121 0.261563 138.969 0.758347C137.817 1.25513 136.835 1.93494 136.027 2.79196C135.219 3.64899 134.605 4.65708 134.18 5.81334C133.758 6.96959 133.546 8.19557 133.546 9.48837C133.546 10.8567 133.776 12.1263 134.237 13.2941C134.698 14.4649 135.366 15.4701 136.237 16.3155C137.107 17.1609 138.146 17.8204 139.349 18.2939C140.552 18.7675 141.911 19.0028 143.425 19.0028C145.066 19.0028 146.592 18.6919 148.002 18.0702C149.411 17.4485 150.602 16.4898 151.578 15.197L148.388 13.3319C147.72 14.1773 146.96 14.77 146.101 15.1041C145.242 15.4411 144.365 15.6067 143.467 15.6067C141.8 15.6067 140.462 15.1593 139.451 14.2645C138.439 13.3697 137.868 12.1989 137.739 10.7579H151.925C151.949 10.6098 151.97 10.3919 151.982 10.1043C151.994 9.81956 152 9.49999 152 9.15137C152 7.9312 151.788 6.76914 151.366 5.66227V5.66517ZM137.853 7.84695C137.981 6.6936 138.493 5.72037 139.391 4.93017C140.289 4.13996 141.453 3.74195 142.89 3.74195C143.581 3.74195 144.222 3.84944 144.811 4.06443C145.401 4.27941 145.907 4.57283 146.329 4.9476C146.751 5.31946 147.092 5.75523 147.346 6.25492C147.601 6.75171 147.756 7.28335 147.807 7.84986H137.85L137.853 7.84695Z" fill="#1D1D1B"/>
<path d="M71.5809 2.84716C70.7339 1.90298 69.7223 1.19412 68.5431 0.72058C67.3639 0.247037 66.1967 0.0117188 65.0445 0.0117188C63.6857 0.0117188 62.4287 0.252848 61.2764 0.738011C60.1241 1.22317 59.1245 1.89427 58.2775 2.7542C57.4305 3.61122 56.7721 4.6135 56.2992 5.75814C55.8234 6.90277 55.5869 8.14619 55.5869 9.49128C55.5869 10.8364 55.8234 12.0914 56.2992 13.2593C56.7721 14.4301 57.4275 15.4353 58.2596 16.2807C59.0916 17.1261 60.0673 17.7913 61.1806 18.2765C62.297 18.7617 63.4941 19.0028 64.7751 19.0028C65.9543 19.0028 67.1335 18.7413 68.3127 18.2184C69.4919 17.6955 70.8626 17.068 71.5809 16.1209V19.0028H76.9921V16.1674H74.8881V2.84716H76.9921V0.0117188H71.5809V2.84716ZM70.3748 11.6585C70.1084 12.3877 69.7253 13.0182 69.2285 13.5498C68.7317 14.0814 68.1451 14.494 67.4717 14.7932C66.7953 15.0895 66.0531 15.2377 65.236 15.2377C64.4189 15.2377 63.6827 15.0895 63.0213 14.7932C62.3598 14.4969 61.7792 14.0873 61.2824 13.5701C60.7856 13.0501 60.4025 12.44 60.1361 11.7341C59.8697 11.031 59.7351 10.2699 59.7351 9.45351C59.7351 8.63716 59.8757 7.88472 60.1541 7.19039C60.4354 6.49896 60.8155 5.89178 61.3003 5.37466C61.7852 4.85463 62.3628 4.44791 63.0392 4.15158C63.7126 3.85525 64.4459 3.70709 65.236 3.70709C66.0261 3.70709 66.7953 3.85525 67.4717 4.15158C68.1451 4.44791 68.7317 4.85173 69.2285 5.35723C69.7253 5.86273 70.1084 6.44957 70.3748 7.11776C70.6412 7.78595 70.7758 8.50352 70.7758 9.26758C70.7758 10.1333 70.6412 10.9293 70.3748 11.6585Z" fill="#1D1D1B"/>
<path d="M15.9402 3.41352C15.6708 3.01841 15.3716 2.65236 15.0334 2.32408C14.6922 1.99289 14.3181 1.70528 13.917 1.44962C13.4741 1.16782 12.9952 0.9296 12.4744 0.737859C11.2533 0.290463 9.93347 -5.39487e-05 8.63156 0.0115667C7.34462 0.0260926 6.07563 0.296273 4.86351 0.737859C4.34574 0.926694 3.86688 1.16782 3.42094 1.44962C3.01989 1.70528 2.64578 1.9958 2.30459 2.32408C2.08012 2.54197 1.87361 2.7831 1.67908 3.03294C1.25408 3.57621 0.894938 4.1892 0.613606 4.88063C0.20358 5.88872 -0.00292969 7.02755 -0.00292969 8.2942V19.0056H4.07339V8.6312C4.07339 7.37036 4.34874 6.14437 5.34836 5.28154C6.29711 4.46519 7.53018 3.91611 8.79916 3.95097C9.90354 3.98293 10.96 4.45647 11.813 5.13628C12.3218 5.54301 12.7169 5.9904 12.9353 6.59758C13.1688 7.24834 13.2616 7.94267 13.2616 8.62829V19.0026H17.3379V8.2942C17.3379 7.02464 17.1314 5.88581 16.7213 4.88063C16.5029 4.34608 16.2395 3.86091 15.9372 3.41352H15.9402Z" fill="#1D1D1B"/>
<path d="M110.833 0.645045C109.95 0.345813 109.058 0.197649 108.16 0.197649C106.954 0.197649 105.867 0.459115 104.892 0.982045C103.916 1.50497 103.162 2.20221 102.623 3.07086V3.06214L102.62 2.84716V0.0117188H97.209V2.84716H99.2771V16.1703H97.209V19.0057H103.353V7.73656C103.56 6.61807 104.09 5.69713 104.949 4.97374C105.808 4.25326 106.801 3.89302 107.93 3.89302C108.546 3.89302 109.115 3.98599 109.641 4.17192C110.165 4.35785 110.698 4.63965 111.237 5.01151L113.275 1.95237C112.533 1.38005 111.719 0.944277 110.833 0.645045Z" fill="#1D1D1B"/>
<path d="M90.951 9.10771C91.388 9.35174 91.388 9.96473 90.951 10.2088L87.7815 11.9867L84.612 13.7647C84.1751 14.0087 83.6304 13.7037 83.6304 13.2156V9.66259V6.10957C83.6304 5.62151 84.1751 5.31646 84.612 5.5605L87.7815 7.33846L90.951 9.11642V9.10771Z" fill="#FA2A2A"/>
</svg>
