<svg width="48" height="48" viewBox="0 0 48 48" fill="none" xmlns="http://www.w3.org/2000/svg">
<g clip-path="url(#clip0_2785_27374)">
<path d="M44.25 31.875C44.25 28.7734 41.7266 26.25 38.625 26.25C35.5234 26.25 33 28.7734 33 31.875V36.75H29.25V48H48V36.75H44.25V31.875ZM36.75 31.875C36.75 30.8411 37.5911 30 38.625 30C39.6589 30 40.5 30.8411 40.5 31.875V36.75H36.75V31.875ZM44.25 44.25H33V40.5H44.25V44.25Z" fill="white"/>
<path fill-rule="evenodd" clip-rule="evenodd" d="M14.9793 13.302H35.191V9.55713H14.9793V13.302ZM14.9793 17.0468H35.191V20.7916H14.9793V17.0468ZM24.331 28.2813H14.9793V24.5364H24.331V28.2813ZM25.2188 47.9416H13.1069C10.0096 47.9416 7.48966 45.4217 7.48966 42.3244V17.0468H0V5.62506C0 2.52771 2.5199 0.0078125 5.61724 0.0078125L37.0652 0.0169873C40.1616 0.0180172 42.6806 2.53791 42.6806 5.63423V23.0385H38.9357V5.63423C38.9357 4.60216 38.0961 3.7621 37.064 3.76182L10.9129 3.75423C11.1205 4.33983 11.2345 4.96924 11.2345 5.62506V42.3244C11.2345 43.3568 12.0745 44.1968 13.1069 44.1968H25.1734C25.1884 44.2253 25.2035 44.2537 25.2188 44.282V47.9416ZM7.48966 5.62506V13.302H3.74483V5.62506C3.74483 4.59261 4.58479 3.75264 5.61668 3.75264H5.61724C6.64969 3.75264 7.48966 4.59261 7.48966 5.62506Z" fill="white"/>
</g>
<defs>
<clipPath id="clip0_2785_27374">
<rect width="48" height="48" fill="white"/>
</clipPath>
</defs>
</svg>
