<svg width="122" height="114" viewBox="0 0 122 114" fill="none" xmlns="http://www.w3.org/2000/svg">
<path d="M61 0L63.135 6.30152H70.15L64.66 10.3116L66.795 16.6131L61 12.603L55.205 16.6131L57.34 10.3116L51.85 6.30152H58.865L61 0ZM61 97.3869L63.135 103.688H70.15L64.66 107.412L66.795 114L61 109.99L55.205 114L57.34 107.412L51.85 103.688H58.865L61 97.3869ZM86.62 89.3668L88.755 95.6683H96.075L90.28 99.6784L92.415 105.98L86.62 101.97L80.825 105.98L83.265 99.6784L77.47 95.6683H84.485L86.62 89.3668ZM104.31 72.7538L106.445 79.0553H113.765L107.97 83.0653L110.105 89.3668L104.31 85.3568L98.515 89.3668L100.955 83.0653L95.16 79.0553H102.175L104.31 72.7538ZM112.85 48.6935L114.985 54.995H122L116.205 59.005L118.34 65.3065L112.85 61.2965L107.055 65.3065L109.19 59.005L103.395 54.995H110.41L112.85 48.6935ZM104.31 24.3467L106.445 30.9347H113.765L107.97 34.6583L110.105 40.9598L104.31 37.2362L98.515 40.9598L100.955 34.6583L95.16 30.9347H102.175L104.31 24.3467ZM86.62 7.73369L88.755 14.3216H96.075L90.28 18.0452L92.415 24.3467L86.62 20.6231L80.825 24.3467L83.265 18.0452L77.47 14.3216H84.485L86.62 7.73369ZM35.38 89.3668L33.245 95.6683H25.925L31.72 99.6784L29.585 105.98L35.38 101.97L41.175 105.98L38.735 99.6784L44.53 95.6683H37.515L35.38 89.3668ZM17.69 72.7538L15.555 79.0553H8.23499L14.03 83.0653L11.895 89.3668L17.69 85.3568L23.485 89.3668L21.045 83.0653L26.84 79.0553H19.825L17.69 72.7538ZM9.14999 48.6935L7.015 54.995H0L5.795 59.005L3.66 65.3065L9.14999 61.2965L14.945 65.3065L12.81 59.005L18.605 54.995H11.59L9.14999 48.6935ZM17.69 24.3467L15.555 30.9347H8.23499L14.03 34.6583L11.895 40.9598L17.69 37.2362L23.485 40.9598L21.045 34.6583L26.84 30.9347H19.825L17.69 24.3467ZM35.38 7.73369L33.245 14.3216H25.925L31.72 18.0452L29.585 24.3467L35.38 20.6231L41.175 24.3467L38.735 18.0452L44.53 14.3216H37.515L35.38 7.73369Z" fill="#FCCB04"/>
</svg>
