<svg width="80" height="80" viewBox="0 0 80 80" fill="none" xmlns="http://www.w3.org/2000/svg">
<g id="ArrowDownLeft">
<path id="Vector" d="M60.8844 20.8841L23.0188 58.7497H52.5C52.8315 58.7497 53.1495 58.8814 53.3839 59.1158C53.6183 59.3503 53.75 59.6682 53.75 59.9997C53.75 60.3312 53.6183 60.6492 53.3839 60.8836C53.1495 61.118 52.8315 61.2497 52.5 61.2497H20C19.6685 61.2497 19.3505 61.118 19.1161 60.8836C18.8817 60.6492 18.75 60.3312 18.75 59.9997V27.4997C18.75 27.1682 18.8817 26.8503 19.1161 26.6158C19.3505 26.3814 19.6685 26.2497 20 26.2497C20.3315 26.2497 20.6495 26.3814 20.8839 26.6158C21.1183 26.8503 21.25 27.1682 21.25 27.4997V56.981L59.1156 19.1153C59.2318 18.9992 59.3696 18.9071 59.5214 18.8442C59.6731 18.7814 59.8358 18.749 60 18.749C60.1642 18.749 60.3269 18.7814 60.4786 18.8442C60.6304 18.9071 60.7682 18.9992 60.8844 19.1153C61.0005 19.2315 61.0926 19.3694 61.1555 19.5211C61.2183 19.6728 61.2507 19.8355 61.2507 19.9997C61.2507 20.164 61.2183 20.3266 61.1555 20.4783C61.0926 20.6301 61.0005 20.768 60.8844 20.8841Z" fill="#CFCDBE"/>
</g>
</svg>
