<svg width="80" height="80" viewBox="0 0 80 80" fill="none" xmlns="http://www.w3.org/2000/svg">
<g id="ArrowUpRight">
<path id="Vector" d="M61.25 20V52.5C61.25 52.8315 61.1183 53.1495 60.8839 53.3839C60.6495 53.6183 60.3315 53.75 60 53.75C59.6685 53.75 59.3505 53.6183 59.1161 53.3839C58.8817 53.1495 58.75 52.8315 58.75 52.5V23.0188L20.8844 60.8844C20.6498 61.1189 20.3317 61.2507 20 61.2507C19.6683 61.2507 19.3502 61.1189 19.1156 60.8844C18.8811 60.6498 18.7493 60.3317 18.7493 60C18.7493 59.6683 18.8811 59.3502 19.1156 59.1156L56.9812 21.25H27.5C27.1685 21.25 26.8505 21.1183 26.6161 20.8839C26.3817 20.6495 26.25 20.3315 26.25 20C26.25 19.6685 26.3817 19.3505 26.6161 19.1161C26.8505 18.8817 27.1685 18.75 27.5 18.75H60C60.3315 18.75 60.6495 18.8817 60.8839 19.1161C61.1183 19.3505 61.25 19.6685 61.25 20Z" fill="#CFCDBE"/>
</g>
</svg>
