<svg width="32" height="32" viewBox="0 0 32 32" fill="none" xmlns="http://www.w3.org/2000/svg">
<path d="M15 7L7.54 9.7975C7.37583 9.8591 7.23074 9.96278 7.11929 10.0981C7.00784 10.2335 6.93394 10.3958 6.905 10.5688L4 28L21.4312 25.095C21.6042 25.0661 21.7665 24.9922 21.9019 24.8807C22.0372 24.7693 22.1409 24.6242 22.2025 24.46L25 17L15 7ZM14.5 20C14.0055 20 13.5222 19.8534 13.1111 19.5787C12.7 19.304 12.3795 18.9135 12.1903 18.4567C12.0011 17.9999 11.9516 17.4972 12.048 17.0123C12.1445 16.5273 12.3826 16.0819 12.7322 15.7322C13.0819 15.3826 13.5273 15.1445 14.0123 15.048C14.4972 14.9516 14.9999 15.0011 15.4567 15.1903C15.9135 15.3795 16.304 15.7 16.5787 16.1111C16.8534 16.5222 17 17.0055 17 17.5C17 18.163 16.7366 18.7989 16.2678 19.2678C15.7989 19.7366 15.163 20 14.5 20Z" fill="white" fill-opacity="0.1"/>
<path d="M30 12.585C30.0008 12.3223 29.9494 12.062 29.8488 11.8193C29.7482 11.5766 29.6003 11.3563 29.4138 11.1713L20.8288 2.585C20.643 2.39924 20.4225 2.25188 20.1798 2.15134C19.9372 2.0508 19.6771 1.99905 19.4144 1.99905C19.1517 1.99905 18.8916 2.0508 18.6489 2.15134C18.4062 2.25188 18.1857 2.39924 18 2.585L14.4463 6.13875L7.19625 8.86C6.86676 8.98288 6.57532 9.19016 6.35112 9.46109C6.12692 9.73202 5.97782 10.0571 5.91875 10.4038L3.01375 27.835C2.98978 27.9783 2.99732 28.1251 3.03584 28.2652C3.07436 28.4052 3.14295 28.5352 3.23681 28.6461C3.33068 28.757 3.44759 28.8461 3.57939 28.9072C3.71119 28.9683 3.85472 29 4 29C4.05528 28.9998 4.11045 28.9952 4.165 28.9863L21.595 26.0813C21.9412 26.0235 22.2662 25.8756 22.5372 25.6524C22.8082 25.4293 23.0156 25.1387 23.1388 24.81L25.86 17.56L29.4138 14C29.6004 13.8148 29.7483 13.5943 29.8489 13.3514C29.9496 13.1084 30.0009 12.8479 30 12.585ZM21.2663 24.1088L6.915 26.5L12.8363 20.5788C13.5758 20.9784 14.4345 21.0986 15.2554 20.9172C16.0763 20.7359 16.8044 20.2651 17.3068 19.5911C17.8091 18.917 18.052 18.0847 17.9912 17.2462C17.9303 16.4078 17.5697 15.6192 16.9752 15.0248C16.3808 14.4304 15.5922 14.0697 14.7538 14.0089C13.9153 13.948 13.083 14.1909 12.4089 14.6932C11.7349 15.1956 11.2641 15.9237 11.0828 16.7446C10.9014 17.5655 11.0216 18.4242 11.4213 19.1638L5.5 25.0875L7.89125 10.7325L14.75 8.16125L23.8375 17.25L21.2663 24.1088ZM13 17.5C13 17.2033 13.088 16.9133 13.2528 16.6666C13.4176 16.42 13.6519 16.2277 13.926 16.1142C14.2001 16.0007 14.5017 15.9709 14.7926 16.0288C15.0836 16.0867 15.3509 16.2296 15.5607 16.4393C15.7704 16.6491 15.9133 16.9164 15.9712 17.2074C16.0291 17.4983 15.9994 17.7999 15.8858 18.074C15.7723 18.3481 15.58 18.5824 15.3334 18.7472C15.0867 18.912 14.7967 19 14.5 19C14.1022 19 13.7206 18.842 13.4393 18.5607C13.158 18.2794 13 17.8978 13 17.5ZM25 15.585L16.4138 7L19.4138 4L28 12.585L25 15.585Z" fill="white"/>
</svg>
