<svg width="82" height="77" viewBox="0 0 82 77" fill="none" xmlns="http://www.w3.org/2000/svg">
<path d="M73.1135 20.1259C76.4052 25.7182 78.1395 32.1069 78.1395 38.6018C78.1395 58.7411 61.8051 75.0756 41.6657 75.0756C29.7378 75.0756 19.1549 69.3595 12.5008 60.5109M8.53661 53.8744C6.39525 49.2201 5.19182 44.0525 5.19182 38.5841C5.19182 18.4447 21.5263 2.11023 41.6657 2.11023C46.1785 2.11023 50.6381 2.94197 54.8501 4.57011" stroke="#34C759" stroke-width="2.49484" stroke-linecap="round" stroke-linejoin="round"/>
<path fill-rule="evenodd" clip-rule="evenodd" d="M65.3086 66.3504C58.9377 71.7835 50.6731 75.0751 41.6475 75.0751C32.622 75.0751 24.3574 71.8011 17.9864 66.3504C24.3574 60.9174 32.622 57.6257 41.6475 57.6257C50.6731 57.6257 58.9377 60.8997 65.3086 66.3504Z" fill="#34C759" stroke="#34C759" stroke-width="2.49484" stroke-linecap="round" stroke-linejoin="round"/>
<path d="M41.6477 49.6274V60.9182" stroke="#34C759" stroke-width="2.49484" stroke-linecap="round" stroke-linejoin="round"/>
<path fill-rule="evenodd" clip-rule="evenodd" d="M77.9091 54.0339C80.6168 51.3262 80.6168 46.9196 77.9091 44.2119L73.007 39.3098L68.1049 44.2119C65.3973 46.9196 65.3973 51.3262 68.1049 54.0339C70.8126 56.7415 75.2192 56.7415 77.9268 54.0339H77.9091Z" fill="white"/>
<mask id="mask0_32634_123479" style="mask-type:luminance" maskUnits="userSpaceOnUse" x="66" y="39" width="14" height="18">
<path d="M77.9082 54.034C80.6159 51.3263 80.6159 46.9197 77.9082 44.212L73.0061 39.3099L68.1041 44.212C65.3964 46.9197 65.3964 51.3263 68.1041 54.034C70.8117 56.7417 75.2183 56.7417 77.926 54.034H77.9082Z" fill="white"/>
</mask>
<g mask="url(#mask0_32634_123479)">
<path fill-rule="evenodd" clip-rule="evenodd" d="M77.9097 54.0339C80.6174 51.3262 80.6174 46.9196 77.9097 44.2119L73.0076 39.3098V56.069C74.7774 56.069 76.5648 55.3966 77.9097 54.0339Z" fill="#34C759"/>
</g>
<path fill-rule="evenodd" clip-rule="evenodd" d="M77.9091 54.0339C80.6168 51.3262 80.6168 46.9196 77.9091 44.2119L73.007 39.3098L68.1049 44.2119C65.3973 46.9196 65.3973 51.3262 68.1049 54.0339C70.8126 56.7415 75.2192 56.7415 77.9268 54.0339H77.9091Z" stroke="#34C759" stroke-width="2.49484" stroke-linecap="round" stroke-linejoin="round"/>
<path fill-rule="evenodd" clip-rule="evenodd" d="M42.6575 13.1883H39.1888C36.3396 13.1883 34.0213 15.5244 34.0213 18.3559C34.0213 21.2052 36.3573 23.5235 39.1888 23.5235H42.6575V13.1707V13.1883Z" fill="#34C759" stroke="#34C759" stroke-width="2.49484" stroke-linecap="round" stroke-linejoin="round"/>
<path d="M42.6569 15.5245H47.0989" stroke="#34C759" stroke-width="2.49484" stroke-linecap="round" stroke-linejoin="round"/>
<path d="M42.6572 21.2053H47.0991" stroke="#34C759" stroke-width="2.49484" stroke-linecap="round" stroke-linejoin="round"/>
<path fill-rule="evenodd" clip-rule="evenodd" d="M57.6803 39.9645V35.3456H53.0614C46.7966 35.3456 41.6644 40.4777 41.6644 46.7425V51.3615H46.2833C52.5481 51.3615 57.6803 46.2293 57.6803 39.9645Z" fill="white"/>
<mask id="mask1_32634_123479" style="mask-type:luminance" maskUnits="userSpaceOnUse" x="41" y="35" width="17" height="17">
<path d="M57.6813 39.964V35.3451H53.0624C46.7976 35.3451 41.6654 40.4772 41.6654 46.742V51.361H46.2843C52.5491 51.361 57.6813 46.2288 57.6813 39.964Z" fill="white"/>
</mask>
<g mask="url(#mask1_32634_123479)">
<path fill-rule="evenodd" clip-rule="evenodd" d="M57.6813 39.964V35.3451L41.6654 51.361H46.2843C52.5491 51.361 57.6813 46.2288 57.6813 39.964Z" fill="#34C759"/>
</g>
<path fill-rule="evenodd" clip-rule="evenodd" d="M57.6803 39.9645V35.3456H53.0614C46.7966 35.3456 41.6644 40.4777 41.6644 46.7425V51.3615H46.2833C52.5481 51.3615 57.6803 46.2293 57.6803 39.9645Z" stroke="#34C759" stroke-width="2.49484" stroke-linecap="round" stroke-linejoin="round"/>
<path fill-rule="evenodd" clip-rule="evenodd" d="M25.6325 32.4429V27.824H30.2514C36.5162 27.824 41.6484 32.9561 41.6484 39.2209V43.8399H37.0295C30.7647 43.8399 25.6325 38.7077 25.6325 32.4429Z" fill="white"/>
<mask id="mask2_32634_123479" style="mask-type:luminance" maskUnits="userSpaceOnUse" x="25" y="27" width="17" height="17">
<path d="M25.6305 32.4429V27.824H30.2495C36.5143 27.824 41.6465 32.9561 41.6465 39.2209V43.8399H37.0275C30.7627 43.8399 25.6305 38.7077 25.6305 32.4429Z" fill="white"/>
</mask>
<g mask="url(#mask2_32634_123479)">
<path fill-rule="evenodd" clip-rule="evenodd" d="M25.6305 32.4429V27.824L41.6465 43.8399H37.0275C30.7627 43.8399 25.6305 38.7077 25.6305 32.4429Z" fill="#34C759"/>
</g>
<path fill-rule="evenodd" clip-rule="evenodd" d="M25.6325 32.4429V27.824H30.2514C36.5162 27.824 41.6484 32.9561 41.6484 39.2209V43.8399H37.0295C30.7647 43.8399 25.6325 38.7077 25.6325 32.4429Z" stroke="#34C759" stroke-width="2.49484" stroke-linecap="round" stroke-linejoin="round"/>
<path fill-rule="evenodd" clip-rule="evenodd" d="M11.8286 57.4845C18.3058 57.4845 23.5972 52.193 23.5972 45.7159C23.5972 39.2387 18.3058 33.9473 11.8286 33.9473C5.35144 33.9473 0.0599976 39.2387 0.0599976 45.7159C0.0599976 52.193 5.35144 57.4845 11.8286 57.4845Z" fill="#34C759"/>
<path fill-rule="evenodd" clip-rule="evenodd" d="M5.83075 49.9987L8.7154 44.9904H2.92839L5.83075 49.9987Z" fill="white" stroke="white" stroke-width="1.49339" stroke-linecap="round" stroke-linejoin="round"/>
<path d="M5.82922 45.7148C5.82922 42.4054 8.51916 39.7155 11.8285 39.7155C12.4302 39.7155 13.0142 39.8039 13.5982 39.9809" stroke="white" stroke-width="2.49484" stroke-linecap="round" stroke-linejoin="round"/>
<path fill-rule="evenodd" clip-rule="evenodd" d="M17.8286 41.4156L14.9262 46.4239H20.7132L17.8286 41.4156Z" fill="white" stroke="white" stroke-width="1.49339" stroke-linecap="round" stroke-linejoin="round"/>
<path d="M17.8291 45.7158C17.8291 49.0252 15.1391 51.7152 11.8297 51.7152C11.228 51.7152 10.644 51.6267 10.06 51.4497" stroke="white" stroke-width="2.49484" stroke-linecap="round" stroke-linejoin="round"/>
<path fill-rule="evenodd" clip-rule="evenodd" d="M69.9447 24.6741H64.9542L64.0516 21.4354C63.1844 21.0992 62.3881 20.6214 61.6802 20.0551L58.4062 20.9046L55.9109 16.5864L58.2647 14.1796C58.1939 13.7372 58.1584 13.277 58.1584 12.7992C58.1584 12.3214 58.1939 11.879 58.2647 11.4188L55.9109 9.01205L58.4062 4.69394L61.6625 5.54337C62.3704 4.97706 63.1667 4.51694 64.0339 4.163L64.9365 0.924438H69.9271L70.8296 4.18071C71.6968 4.51696 72.4931 4.97708 73.201 5.56109L76.475 4.7116L78.9703 9.02972L76.6166 11.4366C76.6874 11.879 76.7228 12.3391 76.7228 12.8169C76.7228 13.2948 76.6874 13.7372 76.6166 14.1973L78.9703 16.6041L76.475 20.9222L73.201 20.0728C72.4931 20.6391 71.6968 21.0992 70.8296 21.4532L69.9271 24.6917L69.9447 24.6741ZM64.4232 15.8078C65.2019 16.5864 66.2637 17.0642 67.4494 17.0642C68.6351 17.0642 69.697 16.5864 70.4757 15.8078C71.2544 15.0291 71.7322 13.9673 71.7322 12.7816C71.7322 11.5958 71.2544 10.534 70.4757 9.77302C69.697 8.99434 68.6351 8.51654 67.4494 8.51654C66.2637 8.51654 65.2019 8.99434 64.4232 9.77302C63.6446 10.5517 63.1668 11.6135 63.1668 12.7992C63.1668 13.9849 63.6446 15.0468 64.4232 15.8078Z" fill="#34C759"/>
<path d="M33.9671 18.3734H30.0737C25.7733 18.3734 22.2516 14.8517 22.2516 10.5513V7.91443" stroke="#34C759" stroke-width="2.49484" stroke-linecap="round" stroke-linejoin="round"/>
</svg>
