<svg width="84" height="78" viewBox="0 0 84 78" fill="none" xmlns="http://www.w3.org/2000/svg">
<path d="M70.9075 62.644C63.8028 71.2945 53.2002 76.3075 42.0176 76.3075C36.7253 76.3075 31.6868 75.2035 27.1195 73.2128M22.7878 70.9869C11.9314 64.4537 4.66364 52.5819 4.66364 38.9909C4.66364 18.3962 21.3923 1.69238 42.0176 1.69238C59.0906 1.69238 73.9886 13.2565 78.2116 29.7794" stroke="#1886FE" stroke-width="2.56981" stroke-linecap="round" stroke-linejoin="round"/>
<path fill-rule="evenodd" clip-rule="evenodd" d="M29.0967 62.1012L27.1212 73.2129C31.6884 75.2036 36.727 76.3075 42.0192 76.3075C47.3115 76.3075 52.35 75.2036 56.9173 73.2129L54.9418 62.1012C53.9631 56.6358 48.0002 53.9031 42.0192 53.9031C36.0382 53.9031 30.0573 56.6358 29.0967 62.1012Z" fill="#1886FE"/>
<path fill-rule="evenodd" clip-rule="evenodd" d="M29.0967 62.1012L27.1212 73.2129C31.6884 75.2036 36.727 76.3075 42.0192 76.3075C47.3115 76.3075 52.35 75.2036 56.9173 73.2129L54.9418 62.1012C53.9631 56.6358 48.0002 53.9031 42.0192 53.9031C36.0382 53.9031 30.0573 56.6358 29.0967 62.1012Z" stroke="#1886FE" stroke-width="2.56981" stroke-linecap="round" stroke-linejoin="round"/>
<path fill-rule="evenodd" clip-rule="evenodd" d="M42.0196 32.7112C37.416 32.7112 33.6825 36.4392 33.6825 41.0359C33.6825 45.6327 37.416 49.3607 42.0196 49.3607C46.6231 49.3607 50.3567 45.6327 50.3567 41.0359C50.3567 36.4392 46.6231 32.7112 42.0196 32.7112Z" fill="#1886FE"/>
<path d="M55.5564 15.1206H28.4607C27.6099 15.1206 26.9202 15.8093 26.9202 16.6589V25.2189C26.9202 26.0685 27.6099 26.7571 28.4607 26.7571H55.5564C56.4072 26.7571 57.0969 26.0685 57.0969 25.2189V16.6589C57.0969 15.8093 56.4072 15.1206 55.5564 15.1206Z" fill="#1886FE"/>
<path d="M31.9593 3.75562V16.7133" stroke="#1886FE" stroke-width="2.56981" stroke-linecap="round" stroke-linejoin="round"/>
<path d="M52.0764 3.75562V16.7133" stroke="#1886FE" stroke-width="2.56981" stroke-linecap="round" stroke-linejoin="round"/>
<path d="M81.9998 34.3752H59.7071V62.5889H81.9998V34.3752Z" fill="white" stroke="#1886FE" stroke-width="2.56981" stroke-linecap="round" stroke-linejoin="round"/>
<path fill-rule="evenodd" clip-rule="evenodd" d="M76.9427 51.0431H64.8539H76.9427ZM70.9074 56.1646H64.8539H70.9074Z" fill="#1886FE"/>
<path d="M76.9427 51.0431H64.8539M70.9074 56.1646H64.8539" stroke="#1886FE" stroke-width="2.56981" stroke-linecap="round" stroke-linejoin="round"/>
<path d="M64.8539 45.922V32.0232" stroke="#1886FE" stroke-width="2.56981" stroke-linecap="round" stroke-linejoin="round"/>
<path d="M76.853 40.113H70.0927C69.5221 40.113 69.0596 40.5749 69.0596 41.1446V45.5785C69.0596 46.1482 69.5221 46.61 70.0927 46.61H76.853C77.4236 46.61 77.8861 46.1482 77.8861 45.5785V41.1446C77.8861 40.5749 77.4236 40.113 76.853 40.113Z" fill="#1886FE"/>
<path fill-rule="evenodd" clip-rule="evenodd" d="M6.69373 51.1887H18.112V55.8397V57.3961V62.59H6.69373V51.1887Z" fill="white"/>
<path d="M18.112 57.3961V62.59H6.69373V51.1887H18.112" stroke="#1886FE" stroke-width="2.56981" stroke-linecap="round" stroke-linejoin="round"/>
<path d="M10.3011 56.3646L12.2404 58.7172L18.1126 51.1887" stroke="#1886FE" stroke-width="2.56981" stroke-linecap="round" stroke-linejoin="round"/>
<path d="M31.8869 20.9484H43.1239" stroke="white" stroke-width="2.56981" stroke-linecap="round" stroke-linejoin="round"/>
<path d="M50.7172 24.2601C52.549 24.2601 54.0339 22.7773 54.0339 20.9483C54.0339 19.1192 52.549 17.6365 50.7172 17.6365C48.8854 17.6365 47.4005 19.1192 47.4005 20.9483C47.4005 22.7773 48.8854 24.2601 50.7172 24.2601Z" fill="white"/>
<path fill-rule="evenodd" clip-rule="evenodd" d="M13.1643 20.9294C19.3265 20.9294 24.3107 25.9243 24.3107 32.0593C24.3107 34.0319 23.7851 35.8959 22.8789 37.5065L24.3651 42.5738C24.4919 43.0081 24.1113 43.3882 23.6763 43.2615L18.6016 41.7775C16.9885 42.6824 15.1217 43.2072 13.1462 43.2072C6.98396 43.2072 1.99982 38.2123 1.99982 32.0773C1.99982 25.9423 7.00209 20.9475 13.1462 20.9475L13.1643 20.9294Z" fill="white" stroke="#1886FE" stroke-width="2.56981" stroke-linecap="round" stroke-linejoin="round"/>
<path fill-rule="evenodd" clip-rule="evenodd" d="M10.645 30.5754C9.79315 30.5754 9.10443 31.2631 9.10443 32.1137C9.10443 32.9643 9.79315 33.652 10.645 33.652C11.4968 33.652 12.1855 32.9643 12.1855 32.1137C12.1855 31.2631 11.4968 30.5754 10.645 30.5754ZM15.756 30.5754C14.9042 30.5754 14.2154 31.2631 14.2154 32.1137C14.2154 32.9643 14.9042 33.652 15.756 33.652C16.6078 33.652 17.2966 32.9643 17.2966 32.1137C17.2966 31.2631 16.6078 30.5754 15.756 30.5754Z" fill="#1886FE"/>
</svg>
