<svg width="90" height="78" viewBox="0 0 90 78" fill="none" xmlns="http://www.w3.org/2000/svg">
<path d="M76.2335 21.7965C78.9565 27.044 80.3811 32.9047 80.3811 38.8736C80.3811 43.6342 79.4794 48.1785 77.8564 52.3621M73.8352 59.9359C67.127 69.6555 55.9106 76.0391 43.2155 76.0391C30.5204 76.0391 19.304 69.6555 12.5958 59.9359M9.85485 55.2654C7.42042 50.3244 6.0499 44.7522 6.0499 38.8555C6.0499 18.3342 22.6942 1.68994 43.2155 1.68994C49.509 1.68994 55.7122 3.29486 61.2122 6.3424" stroke="#FF9500" stroke-width="3.05789" stroke-linecap="round" stroke-linejoin="round"/>
<path d="M43.2143 15.2145H2.47823V41.344H43.2143V15.2145Z" fill="white"/>
<path d="M2.47823 15.2145H43.2143V29.7489M35.7127 41.344H2.47823V20.444" stroke="#FF9500" stroke-width="3.05789" stroke-linecap="round" stroke-linejoin="round"/>
<path fill-rule="evenodd" clip-rule="evenodd" d="M43.214 32.9945C47.8304 32.9945 51.5812 36.7453 51.5812 41.3617C51.5812 45.9781 47.8304 49.7289 43.214 49.7289C38.5976 49.7289 34.8468 45.9781 34.8468 41.3617C34.8468 36.7453 38.5976 32.9945 43.214 32.9945Z" fill="#FF9500"/>
<path fill-rule="evenodd" clip-rule="evenodd" d="M26.9672 72.3059L28.7524 62.2256C29.2934 59.1781 31.1147 56.8699 33.6213 55.2649C33.9819 55.0305 34.3606 54.8321 34.7393 54.6338H51.7082C52.0869 54.8321 52.4655 55.0485 52.8262 55.2649C55.3328 56.8518 57.1541 59.1781 57.6951 62.2256L59.4803 72.3059C54.5754 74.7043 49.0574 76.0387 43.2147 76.0387C37.3721 76.0387 31.8721 74.6863 26.9491 72.3059H26.9672Z" fill="#FF9500"/>
<path fill-rule="evenodd" clip-rule="evenodd" d="M51.7073 54.67L46.1352 75.9306C45.1795 76.0027 44.2057 76.0388 43.2319 76.0388C42.2581 76.0388 41.2844 76.0027 40.3286 75.9306L34.7385 54.6339C37.227 53.3536 40.2384 52.7224 43.2319 52.7224C46.2253 52.7224 49.2368 53.3536 51.7254 54.6339V54.67H51.7073Z" fill="white"/>
<path fill-rule="evenodd" clip-rule="evenodd" d="M40.3109 75.9306L34.7207 54.6339C37.2093 53.3536 40.2208 52.7224 43.2142 52.7224V76.0388C42.2404 76.0388 41.2666 76.0027 40.3109 75.9306Z" fill="white"/>
<path fill-rule="evenodd" clip-rule="evenodd" d="M47.2705 76.0935L45.0705 61.4148C44.7459 59.2509 41.6983 59.2509 41.3738 61.4148L39.1737 76.0935C40.5082 76.2378 41.8606 76.3099 43.2311 76.3099C44.6016 76.3099 45.9541 76.2378 47.2885 76.0935H47.2705Z" fill="#FF9500"/>
<path fill-rule="evenodd" clip-rule="evenodd" d="M39.9323 52.9929L41.1946 56.0765C41.5914 57.0503 42.4028 57.5372 43.2143 57.5372C44.0258 57.5372 44.8373 57.0503 45.252 56.0765L46.5143 52.9929C45.4323 52.8126 44.3323 52.7224 43.2143 52.7224C42.0963 52.7224 40.9962 52.8126 39.9143 52.9929H39.9323Z" fill="#FF9500"/>
<path fill-rule="evenodd" clip-rule="evenodd" d="M29.8532 47.0249L28.3565 52.6151L24.2811 48.5216L29.8532 47.0249Z" fill="#FF9500" stroke="#FF9500" stroke-width="3.05789" stroke-linecap="round" stroke-linejoin="round"/>
<path d="M4.55275 61.2706L13.497 52.3263L19.0331 57.8443L27.815 49.0624" stroke="#FF9500" stroke-width="3.05789" stroke-linecap="round" stroke-linejoin="round"/>
<path d="M12.829 26.3588H9.60114C8.99362 26.3588 8.50116 26.8513 8.50116 27.4588V35.3391C8.50116 35.9466 8.99362 36.4391 9.60114 36.4391H12.829C13.4365 36.4391 13.929 35.9466 13.929 35.3391V27.4588C13.929 26.8513 13.4365 26.3588 12.829 26.3588Z" fill="#FF9500"/>
<path d="M21.4839 23.2391H18.2561C17.6486 23.2391 17.1561 23.7316 17.1561 24.3391V35.3391C17.1561 35.9467 17.6486 36.4391 18.2561 36.4391H21.4839C22.0915 36.4391 22.584 35.9467 22.584 35.3391V24.3391C22.584 23.7316 22.0915 23.2391 21.4839 23.2391Z" fill="#FF9500"/>
<path d="M30.1399 20.1372H26.912C26.3045 20.1372 25.812 20.6297 25.812 21.2372V35.3389C25.812 35.9464 26.3045 36.4389 26.912 36.4389H30.1399C30.7474 36.4389 31.2399 35.9464 31.2399 35.3389V21.2372C31.2399 20.6297 30.7474 20.1372 30.1399 20.1372Z" fill="#FF9500"/>
<path d="M73.3119 55.5535C81.1597 55.5535 87.5217 49.1915 87.5217 41.3436C87.5217 33.4957 81.1597 27.1338 73.3119 27.1338C65.464 27.1338 59.102 33.4957 59.102 41.3436C59.102 49.1915 65.464 55.5535 73.3119 55.5535Z" fill="white"/>
<path d="M59.102 41.3436C59.102 49.1879 65.4676 55.5535 73.3119 55.5535C81.1561 55.5535 87.5217 49.1879 87.5217 41.3436C87.5217 33.4994 81.1561 27.1338 73.3119 27.1338C67.2348 27.1338 61.8249 31.0108 59.8594 36.7813" stroke="#FF9500" stroke-width="3.05789" stroke-linecap="round" stroke-linejoin="round"/>
<path fill-rule="evenodd" clip-rule="evenodd" d="M73.3114 51.7129C79.0278 51.7129 83.6802 47.0605 83.6802 41.3441C83.6802 35.6277 79.0278 30.9752 73.3114 30.9752C67.595 30.9752 62.9425 35.6277 62.9425 41.3441C62.9425 47.0605 67.595 51.7129 73.3114 51.7129Z" fill="#FF9500"/>
<path fill-rule="evenodd" clip-rule="evenodd" d="M71.0932 36.422H74.9703C76.3227 36.422 77.4408 37.522 77.4408 38.8925C77.4408 40.2449 76.3408 41.363 74.9703 41.363H71.0932V36.44V36.422Z" stroke="white" stroke-width="3.05789" stroke-linecap="round" stroke-linejoin="round"/>
<path fill-rule="evenodd" clip-rule="evenodd" d="M71.0932 41.3452H75.7818C77.1342 41.3452 78.2523 42.4452 78.2523 43.8157C78.2523 45.1682 77.1523 46.2862 75.7818 46.2862H71.0932V41.3632V41.3452Z" stroke="white" stroke-width="3.05789" stroke-linecap="round" stroke-linejoin="round"/>
<path d="M69.7057 36.422H72.5909" stroke="white" stroke-width="3.05789" stroke-linecap="round" stroke-linejoin="round"/>
<path d="M69.7057 46.2675H72.5909" stroke="white" stroke-width="3.05789" stroke-linecap="round" stroke-linejoin="round"/>
<path d="M73.3119 36.4218V34.4382" stroke="white" stroke-width="3.05789" stroke-linecap="round" stroke-linejoin="round"/>
<path d="M73.3119 48.2511V46.2675" stroke="white" stroke-width="3.05789" stroke-linecap="round" stroke-linejoin="round"/>
<path fill-rule="evenodd" clip-rule="evenodd" d="M67.5764 8.50684C71.219 11.7888 73.0944 16.0085 72.7698 19.3626C70.9305 16.3511 68.4961 13.4118 65.5567 10.7609L59.4436 5.26093L61.4633 3.00684L67.5764 8.50684Z" fill="#FF9500" stroke="#FF9500" stroke-width="3.05789" stroke-linecap="round" stroke-linejoin="round"/>
<path fill-rule="evenodd" clip-rule="evenodd" d="M67.8656 5.20696L70.841 7.89385C71.2738 8.27254 71.2738 8.92172 70.9132 9.37254L65.9903 15.3775C65.6296 15.8102 64.9444 15.8283 64.5116 15.4496L61.0132 12.2939C60.5984 11.9152 60.5263 11.2299 60.9411 10.8152L66.3869 5.27909C66.7837 4.86434 67.4329 4.81024 67.8656 5.20696Z" fill="#FF9500"/>
<path fill-rule="evenodd" clip-rule="evenodd" d="M62.942 17.451L52.5731 30.2543C52.2125 30.6871 51.5272 30.7051 51.0944 30.3265L47.5961 27.1707C47.1813 26.792 47.1092 26.1068 47.5239 25.692L59.1731 14.0428L62.942 17.433V17.451Z" fill="#FF9500"/>
</svg>
