<svg width="84" height="78" viewBox="0 0 84 78" fill="none" xmlns="http://www.w3.org/2000/svg">
<path fill-rule="evenodd" clip-rule="evenodd" d="M40.0499 59.3429L42.8116 74.9203C42.9199 75.5701 42.4867 76.1838 41.8369 76.2921C41.7647 76.2921 41.6925 76.2921 41.6383 76.2921H35.5554C35.429 76.2921 35.3027 76.2741 35.1763 76.238C31.3858 75.2993 27.8299 73.747 24.635 71.6893C21.3498 69.5954 18.2452 67.9709 15.8084 64.9385C15.5918 64.6677 15.5015 64.3067 15.5557 63.9818L16.386 59.3068C16.8192 56.8159 18.3174 54.9386 20.3571 53.639C22.5592 52.2491 25.3931 51.5452 28.227 51.5452C31.0609 51.5452 33.8947 52.2491 36.0969 53.639C38.1365 54.9386 39.6167 56.8339 40.0679 59.3068L40.0499 59.3429Z" fill="#FF3B30"/>
<path fill-rule="evenodd" clip-rule="evenodd" d="M71.367 59.3428L72.0168 63.007C72.089 63.386 71.9626 63.747 71.7279 64.0178C69.2912 67.0141 66.3851 69.6134 63.118 71.7072C59.887 73.7649 56.295 75.3353 52.4864 76.2739C52.3961 76.292 52.2878 76.31 52.1976 76.31H46.1146C45.4648 76.31 44.9233 75.7685 44.9233 75.1187C44.9233 75.0284 44.9233 74.9382 44.9414 74.866L47.7031 59.3428C48.1363 56.8518 49.6344 54.9746 51.6741 53.675C53.8762 52.2851 56.7101 51.5812 59.544 51.5812C62.3779 51.5812 65.2118 52.2851 67.4139 53.675C69.4536 54.9746 70.9337 56.8699 71.385 59.3428H71.367Z" fill="#FF3B30"/>
<path fill-rule="evenodd" clip-rule="evenodd" d="M30.466 73.4393L32.0183 64.685C32.4876 62.0316 34.058 59.9197 36.2962 58.4757C36.3504 58.4396 36.4045 58.4035 36.4587 58.3674C38.6428 57.0317 41.3142 56.418 43.8593 56.418C46.4043 56.418 49.2021 57.0497 51.4223 58.4577C53.6786 59.8836 55.2309 62.0136 55.7183 64.6669L57.2706 73.4213C53.1552 75.1541 48.6245 76.1108 43.8593 76.1108C39.094 76.1108 34.5814 75.1541 30.4479 73.4213L30.466 73.4393Z" fill="white"/>
<path fill-rule="evenodd" clip-rule="evenodd" d="M43.8775 46.328C46.8558 46.328 49.2564 48.7287 49.2564 51.7069C49.2564 54.6852 46.8558 57.0859 43.8775 57.0859C40.8992 57.0859 38.4985 54.6852 38.4985 51.7069C38.4985 48.7287 40.8992 46.328 43.8775 46.328Z" fill="#FF3B30"/>
<path d="M80.249 31.1119C80.7905 33.675 81.0793 36.2923 81.0793 38.9096C81.0793 59.4507 64.4189 76.1112 43.8778 76.1112C33.2101 76.1112 23.5712 71.6166 16.8024 64.4146M13.3187 60.1367C9.131 54.1259 6.67618 46.7975 6.67618 38.9096C6.67618 31.8158 8.66171 25.2094 12.0913 19.5597M16.1165 14.1446C22.9394 6.50935 32.849 1.68994 43.8958 1.68994C57.6862 1.68994 70.3394 9.32522 76.7834 21.5091" stroke="#FF3B30" stroke-width="3.05789" stroke-linecap="round" stroke-linejoin="round"/>
<path fill-rule="evenodd" clip-rule="evenodd" d="M28.2092 18.9102L43.8768 8.78394L59.5264 18.9102V42.1408H28.2092V18.9102Z" fill="white"/>
<path fill-rule="evenodd" clip-rule="evenodd" d="M28.2105 35.2635C32.001 35.2635 35.0876 38.3501 35.0876 42.1407C35.0876 45.9312 32.001 49.0178 28.2105 49.0178C24.4199 49.0178 21.3333 45.9312 21.3333 42.1407C21.3333 38.3501 24.4199 35.2635 28.2105 35.2635Z" fill="#FF3B30"/>
<path fill-rule="evenodd" clip-rule="evenodd" d="M59.5261 33.4946C64.0568 33.4946 67.7751 37.213 67.7751 41.7436V45.0648C67.7751 46.8518 68.3347 48.5305 69.2733 49.9204H49.7971C50.7357 48.5305 51.2952 46.8518 51.2952 45.0648V41.7436C51.2952 37.213 55.0136 33.4946 59.5442 33.4946H59.5261Z" fill="#FF3B30"/>
<path fill-rule="evenodd" clip-rule="evenodd" d="M65.3752 42.3034C65.285 45.4622 62.7038 47.9892 59.5269 47.9892C56.3501 47.9892 53.7689 45.4622 53.6786 42.3034C53.7689 42.3034 53.8592 42.3034 53.9494 42.3034C56.2238 42.3034 58.2273 41.2384 59.5269 39.5778C60.8266 41.2384 62.8301 42.3034 65.1045 42.3034C65.1947 42.3034 65.285 42.3034 65.3752 42.3034Z" fill="white"/>
<path fill-rule="evenodd" clip-rule="evenodd" d="M44.1478 22.5384L51.0972 29.4877L45.4114 35.1735C44.563 36.0219 43.1551 36.0219 42.3067 35.1735L36.3501 29.2169C34.509 27.3758 34.509 24.3795 36.3501 22.5384C38.4981 20.3904 41.9999 20.3904 44.1478 22.5384Z" fill="#FF3B30"/>
<path fill-rule="evenodd" clip-rule="evenodd" d="M51.3854 29.2169L45.4289 35.1735C44.5805 36.0219 43.1726 36.0219 42.3242 35.1735L36.6384 29.4877L43.5877 22.5384C45.7357 20.3904 49.2374 20.3904 51.3854 22.5384C53.2265 24.3795 53.2265 27.3758 51.3854 29.2169Z" fill="#FF3B30"/>
<path d="M28.2092 19.668V31.9963" stroke="#FF3B30" stroke-width="3.05789" stroke-linecap="round" stroke-linejoin="round"/>
<path d="M59.5273 19.668V34.9024" stroke="#FF3B30" stroke-width="3.05789" stroke-linecap="round" stroke-linejoin="round"/>
<path d="M81.6745 26.0941H69.9238M75.7901 31.2023H69.9238" stroke="#FF3B30" stroke-width="3.05789" stroke-linecap="round" stroke-linejoin="round"/>
<path d="M25.0504 21.78L43.8768 9.19897L62.6851 21.78" stroke="#FF3B30" stroke-width="4.58683" stroke-linecap="round" stroke-linejoin="round"/>
<path fill-rule="evenodd" clip-rule="evenodd" d="M11.3507 17.394C16.3325 17.394 20.3758 21.4373 20.3758 26.4192C20.3758 28.0256 19.9606 29.5238 19.2206 30.8414L20.4299 34.9389C20.5382 35.2999 20.2314 35.6067 19.8704 35.4984L15.773 34.2891C14.4733 35.0291 12.9571 35.4443 11.3507 35.4443C6.36879 35.4443 2.32553 31.401 2.32553 26.4192C2.32553 21.4373 6.36879 17.394 11.3507 17.394Z" fill="white" stroke="#FF3B30" stroke-width="3.05789" stroke-linecap="round" stroke-linejoin="round"/>
<path fill-rule="evenodd" clip-rule="evenodd" d="M8.84156 24.9207C7.9932 24.9207 7.30728 25.6066 7.30728 26.4549C7.30728 27.3033 7.9932 27.9892 8.84156 27.9892C9.68993 27.9892 10.3758 27.3033 10.3758 26.4549C10.3758 25.6066 9.68993 24.9207 8.84156 24.9207ZM13.9317 24.9207C13.0834 24.9207 12.3975 25.6066 12.3975 26.4549C12.3975 27.3033 13.0834 27.9892 13.9317 27.9892C14.7801 27.9892 15.466 27.3033 15.466 26.4549C15.466 25.6066 14.7801 24.9207 13.9317 24.9207Z" fill="#FF3B30"/>
<path fill-rule="evenodd" clip-rule="evenodd" d="M53.3714 65.1004L54.9959 74.2879C51.4942 75.4792 47.7578 76.111 43.8589 76.111C39.9601 76.111 36.2237 75.4612 32.7219 74.2879L34.3465 65.1004C34.7075 63.0787 35.9168 61.5445 37.5594 60.4976C37.5955 60.4795 37.6135 60.4615 37.6496 60.4434C39.4005 59.3604 41.6388 58.8188 43.8409 58.8188C46.043 58.8188 48.3715 59.3784 50.1224 60.4976C51.783 61.5445 52.9924 63.0787 53.3353 65.1004H53.3714Z" fill="#FF3B30"/>
</svg>
