<svg width="24" height="25" viewBox="0 0 24 25" fill="none" xmlns="http://www.w3.org/2000/svg">
<g id="Plus">
<path id="Vector" d="M20.625 12.5371C20.625 12.6366 20.5855 12.7319 20.5152 12.8023C20.4448 12.8726 20.3495 12.9121 20.25 12.9121H12.375V20.7871C12.375 20.8866 12.3355 20.9819 12.2652 21.0523C12.1948 21.1226 12.0995 21.1621 12 21.1621C11.9005 21.1621 11.8052 21.1226 11.7348 21.0523C11.6645 20.9819 11.625 20.8866 11.625 20.7871V12.9121H3.75C3.65054 12.9121 3.55516 12.8726 3.48484 12.8023C3.41451 12.7319 3.375 12.6366 3.375 12.5371C3.375 12.4377 3.41451 12.3423 3.48484 12.2719C3.55516 12.2016 3.65054 12.1621 3.75 12.1621H11.625V4.28711C11.625 4.18765 11.6645 4.09227 11.7348 4.02194C11.8052 3.95162 11.9005 3.91211 12 3.91211C12.0995 3.91211 12.1948 3.95162 12.2652 4.02194C12.3355 4.09227 12.375 4.18765 12.375 4.28711V12.1621H20.25C20.3495 12.1621 20.4448 12.2016 20.5152 12.2719C20.5855 12.3423 20.625 12.4377 20.625 12.5371Z" fill="white"/>
</g>
</svg>
