<svg width="16" height="16" viewBox="0 0 16 16" fill="none" xmlns="http://www.w3.org/2000/svg">
<path d="M11.5081 9.23126C11.4396 9.29146 11.3886 9.36909 11.3607 9.45591C11.3327 9.54274 11.3288 9.63552 11.3494 9.72439L12.1944 13.3831C12.2167 13.4787 12.2104 13.5787 12.1763 13.6707C12.1422 13.7627 12.0818 13.8427 12.0025 13.9006C11.9233 13.9585 11.8288 13.9918 11.7307 13.9964C11.6327 14.0009 11.5355 13.9766 11.4512 13.9263L8.2575 11.9888C8.1799 11.9416 8.09082 11.9166 8 11.9166C7.90918 11.9166 7.8201 11.9416 7.7425 11.9888L4.54875 13.9263C4.46448 13.9766 4.36728 14.0009 4.26925 13.9964C4.17122 13.9918 4.0767 13.9585 3.99747 13.9006C3.91824 13.8427 3.85781 13.7627 3.82369 13.6707C3.78958 13.5787 3.78329 13.4787 3.80562 13.3831L4.65062 9.72439C4.67116 9.63552 4.66725 9.54274 4.6393 9.45591C4.61135 9.36909 4.5604 9.29146 4.49187 9.23126L1.6725 6.77188C1.59712 6.70782 1.54244 6.62284 1.51538 6.52769C1.48832 6.43254 1.49009 6.3315 1.52047 6.23736C1.55084 6.14322 1.60846 6.0602 1.68603 5.99882C1.76361 5.93743 1.85764 5.90043 1.95625 5.89251L5.6725 5.57126C5.76317 5.56318 5.84991 5.53051 5.92337 5.47676C5.99683 5.42301 6.05423 5.35023 6.08937 5.26626L7.54125 1.80626C7.58003 1.7168 7.64411 1.64064 7.72562 1.58714C7.80713 1.53363 7.9025 1.50513 8 1.50513C8.0975 1.50513 8.19287 1.53363 8.27438 1.58714C8.35588 1.64064 8.41997 1.7168 8.45875 1.80626L9.91062 5.26626C9.94576 5.35023 10.0032 5.42301 10.0766 5.47676C10.1501 5.53051 10.2368 5.56318 10.3275 5.57126L14.0437 5.89251C14.1424 5.90043 14.2364 5.93743 14.314 5.99882C14.3915 6.0602 14.4492 6.14322 14.4795 6.23736C14.5099 6.3315 14.5117 6.43254 14.4846 6.52769C14.4576 6.62284 14.4029 6.70782 14.3275 6.77188L11.5081 9.23126Z" fill="#F7B91A"/>
<path d="M14.95 6.08074C14.8894 5.89411 14.7753 5.72941 14.6218 5.60717C14.4684 5.48492 14.2823 5.41052 14.0869 5.39324L10.375 5.07324L8.92 1.61324C8.84424 1.43169 8.71647 1.27661 8.55275 1.16753C8.38904 1.05845 8.19672 1.00024 8 1.00024C7.80327 1.00024 7.61095 1.05845 7.44724 1.16753C7.28353 1.27661 7.15575 1.43169 7.08 1.61324L5.62937 5.07324L1.91312 5.39512C1.71689 5.41161 1.5299 5.48567 1.37559 5.608C1.22129 5.73034 1.10654 5.89552 1.04573 6.08281C0.98492 6.27011 0.980764 6.47119 1.03378 6.66084C1.0868 6.85048 1.19463 7.02026 1.34375 7.14887L4.16312 9.61262L3.31812 13.2714C3.27344 13.4628 3.28619 13.6632 3.35478 13.8475C3.42336 14.0317 3.54474 14.1917 3.70374 14.3073C3.86274 14.423 4.0523 14.4892 4.24873 14.4977C4.44515 14.5062 4.63973 14.4566 4.80812 14.3551L7.99562 12.4176L11.19 14.3551C11.3584 14.4566 11.553 14.5062 11.7494 14.4977C11.9458 14.4892 12.1354 14.423 12.2944 14.3073C12.4534 14.1917 12.5748 14.0317 12.6433 13.8475C12.7119 13.6632 12.7247 13.4628 12.68 13.2714L11.8356 9.60887L14.6544 7.14887C14.8035 7.01981 14.9111 6.84956 14.9637 6.65951C15.0163 6.46946 15.0115 6.2681 14.95 6.08074ZM13.9987 6.39324L11.18 8.85324C11.0428 8.97258 10.9408 9.12706 10.8848 9.30006C10.8289 9.47307 10.8212 9.65806 10.8625 9.83512L11.7094 13.5001L8.5175 11.5626C8.36177 11.4678 8.18295 11.4176 8.00062 11.4176C7.81829 11.4176 7.63947 11.4678 7.48375 11.5626L4.29625 13.5001L5.1375 9.83762C5.17884 9.66055 5.17112 9.47557 5.11518 9.30256C5.05924 9.12956 4.95718 8.97508 4.82 8.85574L2 6.39699C1.99977 6.39513 1.99977 6.39324 2 6.39137L5.715 6.07012C5.89637 6.05413 6.06994 5.98893 6.21698 5.88154C6.36402 5.77415 6.47895 5.62865 6.54937 5.46074L8 2.00512L9.45 5.46074C9.52042 5.62865 9.63535 5.77415 9.78239 5.88154C9.92943 5.98893 10.103 6.05413 10.2844 6.07012L14 6.39137C14 6.39137 14 6.39512 14 6.39574L13.9987 6.39324Z" fill="#F7B91A"/>
</svg>
