<svg width="33" height="32" viewBox="0 0 33 32" fill="none" xmlns="http://www.w3.org/2000/svg">
<path d="M25.5 8V10H22.5C21.9696 10 21.4609 10.2107 21.0858 10.5858C20.7107 10.9609 20.5 11.4696 20.5 12V22H5.5C4.96957 22 4.46086 21.7893 4.08579 21.4142C3.71071 21.0391 3.5 20.5304 3.5 20V8C3.5 7.46957 3.71071 6.96086 4.08579 6.58579C4.46086 6.21071 4.96957 6 5.5 6H23.5C24.0304 6 24.5391 6.21071 24.9142 6.58579C25.2893 6.96086 25.5 7.46957 25.5 8Z" fill="white" fill-opacity="0.1"/>
<path d="M28.5 9H26.5V8C26.5 7.20435 26.1839 6.44129 25.6213 5.87868C25.0587 5.31607 24.2956 5 23.5 5H5.5C4.70435 5 3.94129 5.31607 3.37868 5.87868C2.81607 6.44129 2.5 7.20435 2.5 8V20C2.5 20.7956 2.81607 21.5587 3.37868 22.1213C3.94129 22.6839 4.70435 23 5.5 23H19.5V24C19.5 24.7956 19.8161 25.5587 20.3787 26.1213C20.9413 26.6839 21.7044 27 22.5 27H28.5C29.2956 27 30.0587 26.6839 30.6213 26.1213C31.1839 25.5587 31.5 24.7956 31.5 24V12C31.5 11.2044 31.1839 10.4413 30.6213 9.87868C30.0587 9.31607 29.2956 9 28.5 9ZM5.5 21C5.23478 21 4.98043 20.8946 4.79289 20.7071C4.60536 20.5196 4.5 20.2652 4.5 20V8C4.5 7.73478 4.60536 7.48043 4.79289 7.29289C4.98043 7.10536 5.23478 7 5.5 7H23.5C23.7652 7 24.0196 7.10536 24.2071 7.29289C24.3946 7.48043 24.5 7.73478 24.5 8V9H22.5C21.7044 9 20.9413 9.31607 20.3787 9.87868C19.8161 10.4413 19.5 11.2044 19.5 12V21H5.5ZM29.5 24C29.5 24.2652 29.3946 24.5196 29.2071 24.7071C29.0196 24.8946 28.7652 25 28.5 25H22.5C22.2348 25 21.9804 24.8946 21.7929 24.7071C21.6054 24.5196 21.5 24.2652 21.5 24V12C21.5 11.7348 21.6054 11.4804 21.7929 11.2929C21.9804 11.1054 22.2348 11 22.5 11H28.5C28.7652 11 29.0196 11.1054 29.2071 11.2929C29.3946 11.4804 29.5 11.7348 29.5 12V24ZM17.5 26C17.5 26.2652 17.3946 26.5196 17.2071 26.7071C17.0196 26.8946 16.7652 27 16.5 27H11.5C11.2348 27 10.9804 26.8946 10.7929 26.7071C10.6054 26.5196 10.5 26.2652 10.5 26C10.5 25.7348 10.6054 25.4804 10.7929 25.2929C10.9804 25.1054 11.2348 25 11.5 25H16.5C16.7652 25 17.0196 25.1054 17.2071 25.2929C17.3946 25.4804 17.5 25.7348 17.5 26ZM27.5 14C27.5 14.2652 27.3946 14.5196 27.2071 14.7071C27.0196 14.8946 26.7652 15 26.5 15H24.5C24.2348 15 23.9804 14.8946 23.7929 14.7071C23.6054 14.5196 23.5 14.2652 23.5 14C23.5 13.7348 23.6054 13.4804 23.7929 13.2929C23.9804 13.1054 24.2348 13 24.5 13H26.5C26.7652 13 27.0196 13.1054 27.2071 13.2929C27.3946 13.4804 27.5 13.7348 27.5 14Z" fill="white"/>
</svg>
