<svg width="169" height="65" viewBox="0 0 169 65" fill="none" xmlns="http://www.w3.org/2000/svg">
<g id="VECTOR">
<rect id="Rectangle 24" y="22.4694" width="3.07273" height="19.5886" rx="1.53636" fill="black" fill-opacity="0.05"/>
<rect id="Rectangle 6" x="9.2182" y="13.8273" width="3.07273" height="36.8727" rx="1.53636" fill="black" fill-opacity="0.05"/>
<rect id="Rectangle 7" x="18.4363" width="3.07273" height="64.5273" rx="1.53636" fill="black" fill-opacity="0.05"/>
<rect id="Rectangle 8" x="27.6545" y="13.8273" width="3.07273" height="36.8727" rx="1.53636" fill="black" fill-opacity="0.05"/>
<rect id="Rectangle 9" x="36.8727" y="19.5886" width="3.07273" height="25.35" rx="1.53636" fill="black" fill-opacity="0.05"/>
<rect id="Rectangle 10" x="46.0909" y="17.6682" width="3.07273" height="29.1909" rx="1.53636" fill="black" fill-opacity="0.05"/>
<rect id="Rectangle 11" x="55.3091" y="3.84094" width="3.07273" height="56.8454" rx="1.53636" fill="black" fill-opacity="0.05"/>
<rect id="Rectangle 12" x="64.5273" y="11.9069" width="3.07273" height="40.7136" rx="1.53636" fill="black" fill-opacity="0.05"/>
<rect id="Rectangle 13" x="73.7455" y="22.4694" width="3.07273" height="19.5886" rx="1.53636" fill="black" fill-opacity="0.05"/>
<rect id="Rectangle 14" x="82.9636" y="22.4694" width="3.07273" height="19.5886" rx="1.53636" fill="black" fill-opacity="0.05"/>
<rect id="Rectangle 15" x="92.1818" y="19.7806" width="3.07273" height="24.9659" rx="1.53636" fill="black" fill-opacity="0.05"/>
<rect id="Rectangle 16" x="101.4" y="14.0193" width="3.07273" height="36.4886" rx="1.53636" fill="black" fill-opacity="0.05"/>
<rect id="Rectangle 17" x="110.618" y="6.52954" width="3.07273" height="51.4682" rx="1.53636" fill="black" fill-opacity="0.05"/>
<rect id="Rectangle 20" x="119.836" y="17.6682" width="3.07273" height="29.1909" rx="1.53636" fill="black" fill-opacity="0.05"/>
<rect id="Rectangle 18" x="129.055" y="13.0591" width="3.07273" height="38.4091" rx="1.53636" fill="black" fill-opacity="0.05"/>
<rect id="Rectangle 21" x="138.273" y="3.84094" width="3.07273" height="56.8454" rx="1.53636" fill="black" fill-opacity="0.05"/>
<rect id="Rectangle 19" x="147.491" y="19.5886" width="3.07273" height="25.35" rx="1.53636" fill="black" fill-opacity="0.05"/>
<rect id="Rectangle 22" x="156.709" y="11.9069" width="3.07273" height="40.7136" rx="1.53636" fill="black" fill-opacity="0.05"/>
<rect id="Rectangle 23" x="165.927" y="22.4694" width="3.07273" height="19.5886" rx="1.53636" fill="black" fill-opacity="0.05"/>
</g>
</svg>
